<svg xmlns="http://www.w3.org/2000/svg" xmlns:xlink="http://www.w3.org/1999/xlink" viewBox="0 0 306 252"><defs><style>.cls-1{fill:none;}.cls-2{clip-path:url(#clip-path);}.cls-3{fill:#293538;}.cls-4{fill:#bfe5ea;}</style><clipPath id="clip-path"><circle id="_Ellipse_" data-name="&lt;Ellipse&gt;" class="cls-1" cx="142.41" cy="132.03" r="97.85"/></clipPath></defs><title>pesticide design_v3.3_circular</title><g id="_2_4-D" data-name="2,4-D"><g class="cls-2"><path class="cls-3" d="M84.49,43.93C89.18,40.73,95,38.72,100,36c4.23-2.29,15.29-1.42,19.26-2.12,18.82-3.32,40.6-1.88,58.23,5.43,5.67,2.35,10.63,5.67,16.33,7.74A86.94,86.94,0,0,1,210,55.26c9.68,6.05,16.52,14.38,24.84,21.75,10.21,9.06,15.22,21.08,19.78,33.48,4.72,12.84,9.08,25.13,5.84,39-4.2,18-8.78,31.41-15,48.69-1.86,5.15-7.6,7.78-12.7,10.13-4.08,1.87-9,7.8-12.53,11.1-3.22,1.72-6.15,3.55-10.12,4.11-5.18.75-10.62.83-15.85,1.29-13.88,1.24-28.35,7.8-42.06,7.28a121.36,121.36,0,0,1-18.94-2c-5.87-1.15-11.66-2.35-17.62-3-4.77-.5-10.53.18-15.16-1.29-13.34-4.24-27.21-11.9-38.36-20.2-4.3-3.2-8.36-6.21-10.9-10.87-3.71-6.8-6.19-13.77-8.63-21.17-4.35-13.19-2.84-34.86-5.5-48.41-2.14-10.93,3.36-29.1,9.21-38.67C53.63,74.53,66,65.36,75,54.63c2.94-3.51,5.12-7.55,8.91-10.29Z"/><path class="cls-4" d="M104,162.75c11.26,0,11.28-17.5,0-17.5s-11.28,17.5,0,17.5Z"/><path class="cls-4" d="M137.9,116.1c11.26,0,11.28-17.5,0-17.5s-11.28,17.5,0,17.5Z"/><path class="cls-4" d="M93.32,82.79c11.26,0,11.28-17.5,0-17.5s-11.28,17.5,0,17.5Z"/><path class="cls-4" d="M222.71,82.49c11.26,0,11.28-17.5,0-17.5s-11.28,17.5,0,17.5Z"/><path class="cls-4" d="M213.27,156.83c11.26,0,11.27-17.5,0-17.5s-11.28,17.5,0,17.5Z"/><path class="cls-4" d="M149.41,216.83c11.27,0,11.28-17.5,0-17.5s-11.27,17.5,0,17.5Z"/><path class="cls-4" d="M222.71,134c11.26,0,11.28-17.5,0-17.5s-11.28,17.5,0,17.5Z"/><path class="cls-4" d="M99.87,222c11.26,0,11.28-17.5,0-17.5s-11.28,17.5,0,17.5Z"/><path class="cls-4" d="M56.32,104.07c11.26,0,11.28-17.5,0-17.5s-11.28,17.5,0,17.5Z"/><path class="cls-4" d="M178.2,68.91c11.26,0,11.27-17.5,0-17.5s-11.28,17.5,0,17.5Z"/><path class="cls-4" d="M143,49.49c11.26,0,11.28-17.5,0-17.5s-11.28,17.5,0,17.5Z"/><path class="cls-4" d="M232.16,216.83c11.26,0,11.28-17.5,0-17.5s-11.28,17.5,0,17.5Z"/><path class="cls-4" d="M243.2,144.67c6.43,0,6.44-10,0-10s-6.45,10,0,10Z"/><path class="cls-4" d="M253.63,153.05c6.44,0,6.45-10,0-10s-6.44,10,0,10Z"/><path class="cls-4" d="M247.94,175.25c6.44,0,6.45-10,0-10s-6.44,10,0,10Z"/><path class="cls-4" d="M216.64,179.88c6.43,0,6.44-10,0-10s-6.45,10,0,10Z"/><path class="cls-4" d="M195.77,169.7c6.43,0,6.44-10,0-10s-6.45,10,0,10Z"/><path class="cls-4" d="M174.9,177.1c6.43,0,6.44-10,0-10s-6.45,10,0,10Z"/><path class="cls-4" d="M180.59,149.35c6.44,0,6.45-10,0-10s-6.44,10,0,10Z"/><path class="cls-4" d="M195.77,126.22c6.43,0,6.44-10,0-10s-6.45,10,0,10Z"/><path class="cls-4" d="M183.18,190.61v.92a5.21,5.21,0,0,0,1.46,3.54,5,5,0,0,0,7.08,0,5.23,5.23,0,0,0,1.46-3.54v-.92a5.19,5.19,0,0,0-1.46-3.54,5,5,0,0,0-7.08,0,5.23,5.23,0,0,0-1.46,3.54Z"/><path class="cls-4" d="M192,222.43c6.44,0,6.45-10,0-10s-6.44,10,0,10Z"/><path class="cls-4" d="M204.41,208.56c6.44,0,6.45-10,0-10s-6.44,10,0,10Z"/><path class="cls-4" d="M164.46,233.53c6.44,0,6.45-10,0-10s-6.44,10,0,10Z"/><path class="cls-4" d="M137.9,233.53c6.44,0,6.45-10,0-10s-6.44,10,0,10Z"/><path class="cls-4" d="M123.67,169.7c6.44,0,6.45-10,0-10s-6.44,10,0,10Z"/><path class="cls-4" d="M153.08,170.63c6.44,0,6.45-10,0-10s-6.44,10,0,10Z"/><path class="cls-4" d="M155.93,189.13c6.43,0,6.44-10,0-10s-6.45,10,0,10Z"/><path class="cls-4" d="M133.16,138.43h-.95a5,5,0,0,0-5,5,5,5,0,0,0,1.47,3.53,5.17,5.17,0,0,0,3.53,1.47h.95A5.17,5.17,0,0,0,136.7,147a5,5,0,0,0,0-7.07,5.21,5.21,0,0,0-3.54-1.46Z"/><path class="cls-4" d="M85.91,105c6.44,0,6.45-10,0-10s-6.44,10,0,10Z"/><path class="cls-4" d="M165.41,109.57c6.44,0,6.45-10,0-10s-6.44,10,0,10Z"/><path class="cls-4" d="M164.46,144.67c6.44,0,6.45-10,0-10s-6.44,10,0,10Z"/><path class="cls-4" d="M190.08,84.6c6.43,0,6.44-10,0-10s-6.45,10,0,10Z"/><path class="cls-4" d="M219.48,79c6.44,0,6.45-10,0-10s-6.44,10,0,10Z"/><path class="cls-4" d="M208.1,54.07c6.44,0,6.45-10,0-10s-6.44,10,0,10Z"/><path class="cls-4" d="M170.16,43c6.43,0,6.44-10,0-10s-6.45,10,0,10Z"/><path class="cls-4" d="M219.48,105c6.44,0,6.45-10,0-10s-6.44,10,0,10Z"/><path class="cls-4" d="M251.74,92c6.43,0,6.44-10,0-10s-6.45,10,0,10Z"/><path class="cls-4" d="M249.84,103.27h-1a5,5,0,0,0-5,5,5,5,0,0,0,1.47,3.54,5.16,5.16,0,0,0,3.53,1.46h1a5.21,5.21,0,0,0,3.54-1.46,5,5,0,0,0,0-7.07,5.22,5.22,0,0,0-3.54-1.47Z"/><path class="cls-4" d="M68.65,116.05c6.44,0,6.45-10,0-10s-6.44,10,0,10Z"/><path class="cls-4" d="M100.91,120.67c6.43,0,6.44-10,0-10s-6.45,10,0,10Z"/><path class="cls-4" d="M121.78,86.45h1a5,5,0,0,0,5-5,5.07,5.07,0,0,0-1.47-3.54,5.18,5.18,0,0,0-3.53-1.46h-1a5.14,5.14,0,0,0-3.54,1.46,5,5,0,0,0,0,7.07,5.2,5.2,0,0,0,3.54,1.47Z"/><path class="cls-4" d="M125.57,44.82c6.44,0,6.45-10,0-10s-6.44,10,0,10Z"/><path class="cls-4" d="M152.13,73.49c6.44,0,6.45-10,0-10s-6.44,10,0,10Z"/><path class="cls-4" d="M101.81,56.23v.92a5.21,5.21,0,0,0,1.46,3.54,5,5,0,0,0,7.08,0,5.23,5.23,0,0,0,1.46-3.54v-.92a5.19,5.19,0,0,0-1.46-3.54,5,5,0,0,0-7.08,0,5.23,5.23,0,0,0-1.46,3.54Z"/><path class="cls-4" d="M40.36,126.26c6.44,0,6.45-10,0-10s-6.44,10,0,10Z"/><path class="cls-4" d="M56.32,157.68c6.44,0,6.45-10,0-10s-6.44,10,0,10Z"/><path class="cls-4" d="M78.14,141c6.43,0,6.45-10,0-10s-6.45,10,0,10Z"/><path class="cls-4" d="M59.17,188.2c6.43,0,6.44-10,0-10s-6.45,10,0,10Z"/><path class="cls-4" d="M69.6,216.88c6.44,0,6.45-10,0-10s-6.44,10,0,10Z"/><path class="cls-4" d="M93.32,185.43c6.43,0,6.44-10,0-10s-6.45,10,0,10Z"/><path class="cls-4" d="M118,208.56c6.44,0,6.45-10,0-10s-6.44,10,0,10Z"/></g></g></svg>