<svg xmlns="http://www.w3.org/2000/svg" xmlns:xlink="http://www.w3.org/1999/xlink" viewBox="0 0 306 252"><defs><style>.cls-1{fill:none;}.cls-2{clip-path:url(#clip-path);}.cls-3{fill:#84a8b1;}.cls-4{fill:#bfe5ea;}.cls-5{fill:#293538;}</style><clipPath id="clip-path"><circle id="_Ellipse_" data-name="&lt;Ellipse&gt;" class="cls-1" cx="147.5" cy="124.74" r="109.53"/></clipPath></defs><title>pesticide design_v3.3_circular</title><g id="_2_4-DCP" data-name="2,4-DCP"><g class="cls-2"><path class="cls-3" d="M244.05,211.55c7.3-10,12.48-22.51,13.69-33.87,3.42-32.07,11.09-48.71,1.95-80.09C254.27,79,243.13,62.79,234.2,46.52a55.5,55.5,0,0,0-28.89-25.37C186.66,13.76,168,9.24,148.09,8.85c-12.28-.24-24.22,5.18-36,8.47C99.7,20.77,85.63,23.53,75.53,33.24c-2.33,2.24-4.24,4.91-6.46,7.25C65.35,44.41,59.59,48.73,56.3,53,44.23,66.13,31.72,80.89,24.38,98.48c-5.64,13.49-1.5,31.48-.17,45.67,1.37,14.65,1.84,25.59,10.12,36.81,11.24,15.25,22.46,31.43,38.14,40.46s32.74,19.18,49.9,24.39a29.09,29.09,0,0,0,7.6,1.05c9.15.4,18.33,2.28,27.39,3.76,7.52,1.22,12.68.37,19.57-1.84,16.29-5.23,30.16-14.16,46.39-20.09C231,225.9,238.19,219.55,244.05,211.55Z"/><path class="cls-4" d="M56.89,176.83l-1.53,32c-.31,6.43,9.69,6.42,10,0l1.53-32c.31-6.43-9.69-6.42-10,0Z"/><path class="cls-4" d="M76.86,164.34l-1,45c-.14,6.43,9.86,6.43,10,0l1-45c.14-6.44-9.86-6.44-10,0Z"/><path class="cls-4" d="M97,157.89l-.92,67.9c-.08,6.43,9.92,6.44,10,0l.92-67.9c.08-6.43-9.92-6.44-10,0Z"/><path class="cls-4" d="M115.81,150.38q-1,41.44,0,82.92c.16,6.42,10.17,6.45,10,0q-1-41.45,0-82.92c.15-6.44-9.85-6.43-10,0Z"/><path class="cls-4" d="M137.08,138.15l2.66,99.67c.17,6.43,10.17,6.45,10,0l-2.66-99.67c-.17-6.42-10.17-6.45-10,0Z"/><path class="cls-4" d="M161,112.62c-.28,40.34.82,80.9,4.42,121.09.58,6.36,10.58,6.42,10,0-3.6-40.19-4.7-80.75-4.42-121.09.05-6.43-9.95-6.44-10,0Z"/><path class="cls-4" d="M182.07,86c0,45.76,2.08,91.63,6.22,137.21.58,6.36,10.58,6.42,10,0-4.14-45.58-6.21-91.45-6.22-137.21,0-6.44-10-6.45-10,0Z"/><path class="cls-4" d="M201.77,69.86q4.26,72.77,9.81,145.46c.48,6.38,10.49,6.43,10,0Q216,142.63,211.77,69.86c-.37-6.4-10.37-6.44-10,0Z"/><path class="cls-4" d="M223.53,35.85c-9.07,56.26,7.59,112,9.68,168.07.24,6.42,10.25,6.45,10,0-2.05-55-18.92-110.27-10-165.42,1-6.29-8.62-9-9.65-2.65Z"/><path class="cls-4" d="M241.46,17.84q1,41.67,4.56,83.24,1.78,20.52,4.21,41,1.22,10.23,2.59,20.43c.41,3,.83,6.07,1.25,9.11.4,2.84.2,6.38,2.56,8.4,4.85,4.18,12-2.86,7.07-7.07.85.73.19-2.78.15-3-.23-1.62-.45-3.24-.68-4.86q-.71-5.16-1.37-10.34-1.24-9.72-2.36-19.47-2.2-19.5-3.83-39.05-3.26-39.1-4.15-78.35c-.15-6.43-10.15-6.45-10,0Z"/><path class="cls-5" d="M52.73,203c4.39-7.25,10.43-13.49,16.23-19.63,5.31-5.63,10.9-10.93,17.75-14.64,7.66-4.14,16.53-5.5,24.74-8.22a133,133,0,0,0,22.27-9.72,126.65,126.65,0,0,0,37.5-31.46c4.93-6.16,9.16-12.84,14.05-19A58.92,58.92,0,0,1,202,86c8.41-5.11,13.47-11.71,17.34-20.65,4.25-9.84,8.44-19.72,12.66-29.58,2.12-5,1.47-10.72-3.59-13.68-4.21-2.46-11.55-1.4-13.68,3.59l-11.17,26.1c-2.94,6.85-5.08,13-11.66,16.95-7.13,4.32-13.6,9-19,15.37-5.21,6.13-9.61,12.87-14.41,19.31a109.26,109.26,0,0,1-34.81,30.11,105.13,105.13,0,0,1-20.67,8.7c-8.93,2.7-18,4.76-26.33,9.24s-15.4,11-21.81,17.77c-7,7.36-14.09,15-19.35,23.67C28.77,204,46.06,214,52.73,203Z"/><path class="cls-5" d="M131.17,115.59h.5a9.67,9.67,0,0,0,6.18-2.56,6.44,6.44,0,0,0,1.81-2.82,6.6,6.6,0,0,0,.76-3.37,8.81,8.81,0,0,0-2.57-6.18,9,9,0,0,0-6.18-2.57h-.5a6.6,6.6,0,0,0-3.37.76,6.44,6.44,0,0,0-2.82,1.81,9.67,9.67,0,0,0-2.56,6.18A8.82,8.82,0,0,0,125,113a9.1,9.1,0,0,0,6.19,2.56Z"/><path class="cls-5" d="M145.25,82.87v0a6.63,6.63,0,0,0,.76,3.37,6.56,6.56,0,0,0,1.81,2.82,6.65,6.65,0,0,0,2.81,1.81,6.72,6.72,0,0,0,3.37.75,8.87,8.87,0,0,0,6.19-2.56,9.12,9.12,0,0,0,2.56-6.19v0A6.52,6.52,0,0,0,162,79.5a6.65,6.65,0,0,0-1.81-2.82,6.51,6.51,0,0,0-2.82-1.8,6.6,6.6,0,0,0-3.37-.76,8.84,8.84,0,0,0-6.18,2.56,9.08,9.08,0,0,0-2.57,6.19Z"/><path class="cls-5" d="M185.48,59.84v-.5a6.63,6.63,0,0,0-.76-3.37,7.9,7.9,0,0,0-4.62-4.62,6.63,6.63,0,0,0-3.37-.76,8.83,8.83,0,0,0-6.19,2.57A9.08,9.08,0,0,0,168,59.34v.5a6.5,6.5,0,0,0,.75,3.37,7.86,7.86,0,0,0,4.63,4.63,6.5,6.5,0,0,0,3.37.75A8.8,8.8,0,0,0,182.91,66a9.07,9.07,0,0,0,2.57-6.19Z"/><path class="cls-5" d="M203.93,35.32v-.5a6.6,6.6,0,0,0-.75-3.37,6.62,6.62,0,0,0-1.81-2.82,6.53,6.53,0,0,0-2.82-1.81,6.5,6.5,0,0,0-3.37-.75A8.84,8.84,0,0,0,189,28.63a9.1,9.1,0,0,0-2.56,6.19v.5a6.72,6.72,0,0,0,.75,3.37A6.75,6.75,0,0,0,189,41.51a6.57,6.57,0,0,0,2.82,1.8,6.63,6.63,0,0,0,3.37.76,8.89,8.89,0,0,0,6.19-2.56,9.12,9.12,0,0,0,2.56-6.19Z"/><path class="cls-5" d="M102,133.49c11.26,0,11.28-17.5,0-17.5s-11.28,17.5,0,17.5Z"/><path class="cls-5" d="M70.12,129.4h-.5a6.64,6.64,0,0,0-3.37.75A6.65,6.65,0,0,0,63.44,132a6.44,6.44,0,0,0-1.81,2.82,6.6,6.6,0,0,0-.76,3.37,8.9,8.9,0,0,0,2.57,6.19,9.08,9.08,0,0,0,6.18,2.56h.5a6.76,6.76,0,0,0,3.38-.75,7.88,7.88,0,0,0,4.62-4.63,6.52,6.52,0,0,0,.75-3.37A8.84,8.84,0,0,0,76.31,132a9.1,9.1,0,0,0-6.19-2.56Z"/><path class="cls-5" d="M44.34,148.68h-.5a6.72,6.72,0,0,0-3.37.75,7.86,7.86,0,0,0-4.63,4.63,6.72,6.72,0,0,0-.75,3.37,8.89,8.89,0,0,0,2.56,6.19,9.12,9.12,0,0,0,6.19,2.56h.5a6.5,6.5,0,0,0,3.37-.75,7.86,7.86,0,0,0,4.63-4.63,6.5,6.5,0,0,0,.75-3.37,8.84,8.84,0,0,0-2.56-6.19,9.1,9.1,0,0,0-6.19-2.56Z"/></g></g></svg>