<svg xmlns="http://www.w3.org/2000/svg" xmlns:xlink="http://www.w3.org/1999/xlink" viewBox="0 0 306 252"><defs><style>.cls-1{fill:none;}.cls-2{clip-path:url(#clip-path);}.cls-3{fill:#84a8b1;}.cls-4{fill:#293538;}</style><clipPath id="clip-path"><circle id="_Ellipse_" data-name="&lt;Ellipse&gt;" class="cls-1" cx="153" cy="133.1" r="102"/></clipPath></defs><title>pesticide design_v3.3_circular</title><g id="ATRA"><g class="cls-2"><path class="cls-3" d="M202.5,236.69c-17.31,5.64-37.5,5.65-54.25,4.38-19.19-1.46-40.1-2.94-58.25-9.14-14.67-5-37.67-12.72-47.81-24.92-10.42-12.53-15.55-35.6-13.36-50.55,2.31-15.77,4.36-32.54,8.7-47.86,5-17.69,19.5-36,33.57-48.76,9.51-8.61,26-22,39-24.82,7.06.45,15.17-5.8,22-6.83,5.55-.83,10.61-2.63,16.31-2.69,10.16-.09,19.77,3.77,29.64,4.78,18.7,1.93,35.57-.79,52,9.13,14.16,8.57,18.5,21.75,28,34,6.68,8.64,13.56,50.46,8.56,63.54-3,7.95-5.8,49.35-13.79,57.73-3.87,4.06-11,14.27-14.07,18.88-3,4.44-9.3,6.1-13.25,9.89C219.08,229.65,211.15,233.87,202.5,236.69Z"/><path class="cls-4" d="M109.59,162.1c6.44,0,6.45-10,0-10s-6.44,10,0,10Z"/><path class="cls-4" d="M99.09,138.1c6.44,0,6.45-10,0-10s-6.44,10,0,10Z"/><path class="cls-4" d="M123.09,112.6c6.44,0,6.45-10,0-10s-6.44,10,0,10Z"/><path class="cls-4" d="M81.19,115.2c6.43,0,6.44-10,0-10s-6.45,10,0,10Z"/><path class="cls-4" d="M165.09,120.1c6.43,0,6.45-10,0-10s-6.45,10,0,10Z"/><path class="cls-4" d="M163.59,73.6c6.43,0,6.45-10,0-10s-6.45,10,0,10Z"/><path class="cls-4" d="M147.09,97.6c6.44,0,6.45-10,0-10s-6.44,10,0,10Z"/><path class="cls-4" d="M199.59,84.1c6.43,0,6.44-10,0-10s-6.45,10,0,10Z"/><path class="cls-4" d="M199.59,135.1c6.43,0,6.44-10,0-10s-6.45,10,0,10Z"/><path class="cls-4" d="M244.59,118.6c6.43,0,6.44-10,0-10s-6.45,10,0,10Z"/><path class="cls-4" d="M222.09,79.6c6.43,0,6.44-10,0-10s-6.45,10,0,10Z"/><path class="cls-4" d="M223.59,151.6c6.43,0,6.44-10,0-10s-6.45,10,0,10Z"/><path class="cls-4" d="M186.09,163.6c6.43,0,6.44-10,0-10s-6.45,10,0,10Z"/><path class="cls-4" d="M168.09,210.09c6.43,0,6.44-10,0-10s-6.45,10,0,10Z"/><path class="cls-4" d="M127.59,138.1c6.44,0,6.45-10,0-10s-6.44,10,0,10Z"/><path class="cls-4" d="M222.09,190.59c6.43,0,6.44-10,0-10s-6.45,10,0,10Z"/><path class="cls-4" d="M204,218.5c6.43,0,6.45-10,0-10s-6.45,10,0,10Z"/><path class="cls-4" d="M147.09,221c6.44,0,6.45-10,0-10s-6.44,10,0,10Z"/><path class="cls-4" d="M93.09,90.1c6.44,0,6.45-10,0-10s-6.44,10,0,10Z"/><path class="cls-4" d="M68.94,90.1c6.44,0,6.45-10,0-10s-6.44,10,0,10Z"/><path class="cls-4" d="M102.34,67.33c6.44,0,6.45-10,0-10s-6.44,10,0,10Z"/><path class="cls-4" d="M156.09,165.1c6.43,0,6.45-10,0-10s-6.44,10,0,10Z"/><path class="cls-4" d="M94.59,201.09c6.44,0,6.45-10,0-10s-6.44,10,0,10Z"/><path class="cls-4" d="M136.59,51.1c6.44,0,6.45-10,0-10s-6.44,10,0,10Z"/><path class="cls-4" d="M136.59,51.1c6.44,0,6.45-10,0-10s-6.44,10,0,10Z"/><path class="cls-4" d="M63.6,144.1c6.43,0,6.44-10,0-10s-6.45,10,0,10Z"/><path class="cls-4" d="M56.5,180c6.43,0,6.45-10,0-10s-6.45,10,0,10Z"/><path class="cls-4" d="M222.09,54.67c6.43,0,6.44-10,0-10s-6.45,10,0,10Z"/><path class="cls-4" d="M244.59,172.33c6.43,0,6.44-10,0-10s-6.45,10,0,10Z"/><path class="cls-4" d="M130,80.75c11.26,0,11.28-17.5,0-17.5s-11.28,17.5,0,17.5Z"/><path class="cls-4" d="M212.67,113.08c11.26,0,11.28-17.5,0-17.5s-11.28,17.5,0,17.5Z"/><path class="cls-4" d="M192.09,62.35c11.26,0,11.28-17.5,0-17.5s-11.28,17.5,0,17.5Z"/><path class="cls-4" d="M156.09,141.85c11.26,0,11.28-17.5,0-17.5s-11.28,17.5,0,17.5Z"/><path class="cls-4" d="M79.59,165.85c11.26,0,11.28-17.5,0-17.5s-11.27,17.5,0,17.5Z"/><path class="cls-4" d="M198.09,198.84c11.26,0,11.28-17.5,0-17.5s-11.28,17.5,0,17.5Z"/><path class="cls-4" d="M112.59,218.34c11.26,0,11.28-17.5,0-17.5s-11.28,17.5,0,17.5Z"/><path class="cls-4" d="M133.59,194.34c11.26,0,11.28-17.5,0-17.5s-11.28,17.5,0,17.5Z"/><path class="cls-4" d="M248,145.75c11.26,0,11.28-17.5,0-17.5s-11.28,17.5,0,17.5Z"/></g></g></svg>