<svg xmlns="http://www.w3.org/2000/svg" xmlns:xlink="http://www.w3.org/1999/xlink" viewBox="0 0 306 252"><defs><style>.cls-1{fill:none;}.cls-2{clip-path:url(#clip-path);}.cls-3{fill:#84a8b1;}.cls-4{fill:#bfe5ea;}.cls-5{fill:#293538;}</style><clipPath id="clip-path"><circle id="_Ellipse_" data-name="&lt;Ellipse&gt;" class="cls-1" cx="167.15" cy="119.82" r="100.65"/></clipPath></defs><title>pesticide design_v3.3_circular</title><g id="BENT"><g class="cls-2"><path class="cls-3" d="M94.34,46.84c-2.83,1.59-6.14,2-9.13,3.24C77.93,53.15,71.88,58.8,66.7,64.65A75.5,75.5,0,0,0,48.87,98.23c-3.95,15.8-5.51,38.51-1.62,54.09,3.74,15,16,23.21,27.63,32.39,17.06,13.44,38,26.85,59.52,31.59,21,4.62,43.8,3.09,65.2,3.95,15.17.61,24.39.37,36.38-9.46s27.81-20.6,37.34-33.12c3.14-4.13,4.11-8.46,5.36-13.47,3-11.88,6.81-23.49,9.71-35.38,3.06-12.6,4.68-23.58,1.87-36.69-3.32-15.56-12.7-33.67-22.74-46.1-6.22-7.69-12.82-11.91-21.14-17.63-11.76-8.08-22.23-15.11-36.71-16.27-10-.79-20.16-.24-30.16-.24-12.77,0-27-1.74-39.31,2.11-11.68,3.65-22.49,12.9-32.67,19.73-5.35,3.59-7.91,10.52-13.19,13.64"/><path class="cls-4" d="M75.23,192.89c.41-32.09,17.11-60.72,25.55-91,4.59-16.46,6.23-33.69,7.27-50.7.55-8.94.88-17.77,2.23-26.65,1.27-8.36,5.2-16,5.9-24.43.79-9.62-14.21-9.57-15,0C100.86,3.91,99,7.46,97.82,11A73,73,0,0,0,95.39,23.4c-1.29,9-1.75,17.82-2.28,26.83-1,17.21-2.8,34.34-7.73,50.92-9.08,30.51-24.73,59.2-25.15,91.74-.13,9.65,14.87,9.66,15,0Z"/><path class="cls-4" d="M118.6,192.21c-.57-15.14,4-29.89,8.32-44.23A401.07,401.07,0,0,0,138.76,99.9,433.84,433.84,0,0,0,145,49.1c.77-13.9-.37-29.3,4.21-42.63,3.14-9.15-11.34-13.08-14.47-4-4.82,14-3.86,30.13-4.64,44.77A411.4,411.4,0,0,1,124,97.81a418.15,418.15,0,0,1-12,47.8c-4.56,15-9,30.73-8.36,46.6.35,9.62,15.35,9.67,15,0Z"/><path class="cls-4" d="M151.24,188.67c3.31-3.87,3.27-9.49,3.85-14.31.73-5.93,2.22-13.22,3.71-20,4-17.92,9-35.63,13.32-53.46,4.23-17.44,9.16-34.72,13.19-52.2,1.94-8.42,3.84-17.11,4.43-25.75.55-8-1.09-16.27,1.23-24.08,2.75-9.28-11.72-13.24-14.47-4-2.32,7.83-1.6,15.83-1.63,23.87,0,8.45-2,16.85-3.81,25.05-3.83,16.84-8.63,33.46-12.71,50.24-4.13,17-8.75,33.86-12.77,50.87-1.82,7.73-3.58,15.55-4.72,23.42-.4,2.75-.66,5.51-1,8.27-.1.71-.2,1.42-.33,2.12-.49,2.61-1.54,2.46,1.14-.68-6.24,7.3,4.33,18,10.61,10.61Z"/><path class="cls-4" d="M182.42,188.41c-.54-13.55,7.74-26.48,13.08-38.42a324.64,324.64,0,0,0,16.86-46.62C217,86.31,220,68.74,222.86,51.3c1.41-8.7,2.89-17.48,3.49-26.27.59-8.57-.16-17.2,2.42-25.51,2.86-9.25-11.61-13.2-14.47-4-2.62,8.46-2.45,17.29-2.78,26.05s-1.74,17.21-3.12,25.73c-2.92,18-6,36.17-11,53.76a296.29,296.29,0,0,1-16.85,45.64c-6.08,12.94-13.74,27-13.15,41.7.38,9.62,15.38,9.67,15,0Z"/><path class="cls-4" d="M229.2,192.31c-.31-16.26,2.85-32.19,5.64-48.14,2.89-16.53,6.37-32.83,10.69-49S254,63,255.81,46.31c.89-8.32,1.34-16.69,2.16-25a91.24,91.24,0,0,0,.31-10.46c0-2.78-.42-6.17.77-8.76,4-8.71-8.92-16.34-13-7.57C243,1.26,243.4,8,243.36,15.27c-.05,8.47-1.35,17.09-2,25.54-1.41,17.26-5.83,33.66-10.26,50.33s-8,33.68-11,50.79c-2.94,16.64-6.2,33.42-5.87,50.38.19,9.64,15.19,9.68,15,0Z"/><path class="cls-4" d="M267.1,184.16c-.93-2,.42-8.25,1.19-11.39,1.28-5.28,3-10.43,4.61-15.63,4.49-14.84,4.85-30.62,6.22-46,1.51-16.83,5-33.44,8.17-50,1.46-7.68,2.71-15.31,3.44-23.09.69-7.45,1.3-14.84,3.59-22,2.93-9.22-11.55-13.17-14.47-4-2.41,7.58-3.15,15.54-3.89,23.42-.77,8.3-2.12,16.37-3.68,24.56-3.33,17.6-6.81,35.19-8.33,53.06-1.28,15.14-2.34,29.88-6.89,44.46-3.32,10.6-8,23.43-2.91,34.16,4.12,8.72,17.06,1.11,13-7.57Z"/><path class="cls-5" d="M46.05,158.33c30.05,0,59.8,3.49,90.19,3.49,23.77,0,47.15,4.13,70.81,4.07,19.15-.06,38.26-2.55,57.17-3.52,2.83-.15,14.55-1.9,16.32.08,4,4.52-5.8,23.4-7.93,27.72-3.34,6.77-7,14.68-11,20.89-4.42,6.88-12.74,7.83-19.9,9-10.36,1.7-21,4.81-31.38,5.7-10.08.86-20.07-.75-30-1.78-16.93-1.74-33-2.46-49.83-5.8-19.33-3.84-36.35-6.09-52.32-20.18-6.71-5.92-11.18-12.52-16.9-19.33-4.32-5.14-14.4-10.89-16.26-17.43"/><path class="cls-5" d="M247.5,151.75c8,0,8.06-12.5,0-12.5s-8.06,12.5,0,12.5Z"/><path class="cls-5" d="M259.66,78.08h-.5a6.44,6.44,0,0,0-4.42,1.83,6.35,6.35,0,0,0-1.83,4.42,6.28,6.28,0,0,0,1.83,4.42,6.44,6.44,0,0,0,4.42,1.83h.5a6.44,6.44,0,0,0,4.42-1.83,6.25,6.25,0,0,0,0-8.84,6.53,6.53,0,0,0-4.42-1.83Z"/><path class="cls-5" d="M192,45.75v.5a6.46,6.46,0,0,0,1.83,4.42,6.25,6.25,0,0,0,8.84,0,6.51,6.51,0,0,0,1.83-4.42v-.5a6.46,6.46,0,0,0-1.83-4.42,6.37,6.37,0,0,0-4.42-1.83,6.29,6.29,0,0,0-4.42,1.83A6.51,6.51,0,0,0,192,45.75Z"/><path class="cls-5" d="M158.41,54h-.5a6.48,6.48,0,0,0-4.42,1.83,6.25,6.25,0,0,0,0,8.84,6.53,6.53,0,0,0,4.42,1.83h.5a6.44,6.44,0,0,0,4.42-1.83,6.25,6.25,0,0,0,0-8.84A6.49,6.49,0,0,0,158.41,54Z"/><path class="cls-5" d="M112.5,108.75c8,0,8-12.5,0-12.5s-8.06,12.5,0,12.5Z"/><path class="cls-5" d="M116.11,74.75h-.31c-8,0-8.06,12.5,0,12.5h.31c8,0,8.06-12.5,0-12.5h-.31c-8,0-8.06,12.5,0,12.5h.31c8,0,8.06-12.5,0-12.5Z"/><path class="cls-5" d="M208.45,140.51l-.14,0,1.66.22-.1,0,1.49.63-.06,0,2.88,3.74,0-.06v3.32l0-.07-.63,1.5.06-.08-1,1.26.1-.09-1.26,1,.14-.11a4.6,4.6,0,0,0,1.75-1.61,4.68,4.68,0,0,0,1.12-2.12,6.39,6.39,0,0,0-.63-4.82,6.31,6.31,0,0,0-3.73-2.87l-1.67-.22a6.23,6.23,0,0,0-3.15.85,8.79,8.79,0,0,0-2.52,2.49,12.14,12.14,0,0,0-.67,1.57,3.08,3.08,0,0,0-.12.86,4.69,4.69,0,0,0,.11,2.49,6.94,6.94,0,0,0,2.89,3.79,7.31,7.31,0,0,0,3.46.95,4.74,4.74,0,0,0,2.41-.54,4.59,4.59,0,0,0,2-1.29,6.25,6.25,0,0,0,0-8.84l-1.26-1a6.27,6.27,0,0,0-3.16-.85Z"/><path class="cls-5" d="M186.74,100.75c8,0,8-12.5,0-12.5s-8.06,12.5,0,12.5Z"/><path class="cls-5" d="M73.5,111.92c8,0,8.06-12.5,0-12.5s-8.06,12.5,0,12.5Z"/><path class="cls-5" d="M131.4,140.83l-.5.5a6.46,6.46,0,0,0-1.83,4.42,6.25,6.25,0,0,0,6.25,6.25,6.46,6.46,0,0,0,4.42-1.83l.5-.5a6.25,6.25,0,0,0,0-8.84,6.31,6.31,0,0,0-4.42-1.83,6.48,6.48,0,0,0-4.42,1.83Z"/></g></g></svg>