<svg xmlns="http://www.w3.org/2000/svg" xmlns:xlink="http://www.w3.org/1999/xlink" viewBox="0 0 306 252"><defs><style>.cls-1{fill:none;}.cls-2{clip-path:url(#clip-path);}.cls-3{fill:#bfe5ea;}.cls-4{fill:#6e94a0;}</style><clipPath id="clip-path"><circle id="_Ellipse_" data-name="&lt;Ellipse&gt;" class="cls-1" cx="155.72" cy="142.85" r="92.15"/></clipPath></defs><title>pesticide design_v3.3_circular</title><g id="BROC"><g class="cls-2"><path class="cls-3" d="M167.62,236.87c-8,1.15-16.09,1.7-24.27,2.14-4,.22-8.24.76-12.22.34-8.85-.95-18-5.44-26-8.91C96.42,226.7,86.23,224,78.77,218c-9.11-7.26-16.77-19.44-22.55-29.45-4.48-7.75-8.61-15.59-13.12-23.34-8.26-14.18-7.2-29-5.44-45.32,1.18-11,2.72-22.52,10.28-31C61.51,73.72,83,65.66,99.37,53.73c6.66-4.85,11.92-9.95,20-7.89,4.79,1.21,12.95,3.69,18.11,2.31,2.05-2.31,6.52-2.36,9.55-2.58,11.33-.85,22.8-1.42,34.17-1.26,7.28.1,14.6.28,21.65,2a78.83,78.83,0,0,1,28.85,14.38c4.69,3.64,7.59,9,11.18,13.79,5.39,7.13,9.46,14,10.27,23.18.74,8.29,3.4,16.23,4.19,24.53.91,9.49,0,18.4,2.41,27.51,3.68,13.89,2.18,28.57-3.16,41.63-2.34,5.72-3.42,10.31-8.09,15-10.5,10.6-22.87,13.31-36.61,16.45a30.84,30.84,0,0,0-7,2.94,116.71,116.71,0,0,1-24.88,8.74C175.91,235.52,171.77,236.27,167.62,236.87Z"/><path class="cls-4" d="M107.6,168.09c11.26,0,11.28-17.5,0-17.5s-11.28,17.5,0,17.5Z"/><path class="cls-4" d="M141.49,121.44c11.26,0,11.28-17.5,0-17.5s-11.28,17.5,0,17.5Z"/><path class="cls-4" d="M96.9,88.14c11.26,0,11.28-17.5,0-17.5s-11.28,17.5,0,17.5Z"/><path class="cls-4" d="M226.29,87.84c11.26,0,11.28-17.5,0-17.5s-11.28,17.5,0,17.5Z"/><path class="cls-4" d="M216.85,162.17c11.26,0,11.28-17.5,0-17.5s-11.28,17.5,0,17.5Z"/><path class="cls-4" d="M153,222.17c11.26,0,11.28-17.5,0-17.5s-11.28,17.5,0,17.5Z"/><path class="cls-4" d="M226.29,139.29c11.26,0,11.28-17.5,0-17.5s-11.28,17.5,0,17.5Z"/><path class="cls-4" d="M103.45,227.39c11.26,0,11.28-17.5,0-17.5s-11.28,17.5,0,17.5Z"/><path class="cls-4" d="M59.91,109.42c11.26,0,11.28-17.5,0-17.5s-11.28,17.5,0,17.5Z"/><path class="cls-4" d="M181.78,74.26c11.26,0,11.28-17.5,0-17.5s-11.28,17.5,0,17.5Z"/><path class="cls-4" d="M146.56,54.84c11.26,0,11.28-17.5,0-17.5s-11.28,17.5,0,17.5Z"/><path class="cls-4" d="M235.74,222.17c11.26,0,11.28-17.5,0-17.5s-11.28,17.5,0,17.5Z"/><path class="cls-4" d="M246.78,150c6.44,0,6.45-10,0-10s-6.44,10,0,10Z"/><path class="cls-4" d="M257.22,158.4c6.43,0,6.44-10,0-10s-6.45,10,0,10Z"/><path class="cls-4" d="M251.53,180.6c6.43,0,6.44-10,0-10s-6.45,10,0,10Z"/><path class="cls-4" d="M220.22,185.22c6.44,0,6.45-10,0-10s-6.44,10,0,10Z"/><path class="cls-4" d="M199.35,175.05c6.44,0,6.45-10,0-10s-6.44,10,0,10Z"/><path class="cls-4" d="M178.48,182.45c6.44,0,6.45-10,0-10s-6.44,10,0,10Z"/><path class="cls-4" d="M184.18,154.7c6.43,0,6.44-10,0-10s-6.45,10,0,10Z"/><path class="cls-4" d="M199.35,131.57c6.44,0,6.45-10,0-10s-6.44,10,0,10Z"/><path class="cls-4" d="M186.76,196v.93a5,5,0,0,0,5,5,5.07,5.07,0,0,0,3.54-1.47,5.18,5.18,0,0,0,1.46-3.53V196a5.16,5.16,0,0,0-1.46-3.54,5,5,0,0,0-7.07,0,5.22,5.22,0,0,0-1.47,3.54Z"/><path class="cls-4" d="M195.56,227.78c6.43,0,6.44-10,0-10s-6.45,10,0,10Z"/><path class="cls-4" d="M208,213.9c6.43,0,6.45-10,0-10s-6.45,10,0,10Z"/><path class="cls-4" d="M168.05,238.88c6.43,0,6.44-10,0-10s-6.45,10,0,10Z"/><path class="cls-4" d="M141.49,238.88c6.43,0,6.44-10,0-10s-6.45,10,0,10Z"/><path class="cls-4" d="M127.26,175.05c6.43,0,6.44-10,0-10s-6.45,10,0,10Z"/><path class="cls-4" d="M156.67,176c6.43,0,6.44-10,0-10s-6.45,10,0,10Z"/><path class="cls-4" d="M159.51,194.47c6.44,0,6.45-10,0-10s-6.44,10,0,10Z"/><path class="cls-4" d="M136.75,143.77h-.95a5.15,5.15,0,0,0-3.54,1.47,5,5,0,0,0,0,7.07,5.23,5.23,0,0,0,3.54,1.46h.95a5.18,5.18,0,0,0,3.53-1.46,5,5,0,0,0,0-7.07,5.19,5.19,0,0,0-3.53-1.47Z"/><path class="cls-4" d="M89.5,110.29c6.43,0,6.45-10,0-10s-6.45,10,0,10Z"/><path class="cls-4" d="M169,114.92c6.43,0,6.44-10,0-10s-6.45,10,0,10Z"/><path class="cls-4" d="M168.05,150c6.43,0,6.44-10,0-10s-6.45,10,0,10Z"/><path class="cls-4" d="M193.66,89.94c6.44,0,6.45-10,0-10s-6.44,10,0,10Z"/><path class="cls-4" d="M223.07,84.39c6.43,0,6.44-10,0-10s-6.45,10,0,10Z"/><path class="cls-4" d="M211.69,59.41c6.43,0,6.44-10,0-10s-6.45,10,0,10Z"/><path class="cls-4" d="M173.74,48.31c6.44,0,6.45-10,0-10s-6.44,10,0,10Z"/><path class="cls-4" d="M223.07,110.29c6.43,0,6.44-10,0-10s-6.45,10,0,10Z"/><path class="cls-4" d="M255.32,97.34c6.44,0,6.45-10,0-10s-6.44,10,0,10Z"/><path class="cls-4" d="M253.43,108.62h-1a5.19,5.19,0,0,0-3.54,1.46,5,5,0,0,0,0,7.07,5.2,5.2,0,0,0,3.54,1.47h1a5.15,5.15,0,0,0,3.53-1.47,5,5,0,0,0,0-7.07,5.18,5.18,0,0,0-3.53-1.46Z"/><path class="cls-4" d="M72.24,121.39c6.43,0,6.44-10,0-10s-6.45,10,0,10Z"/><path class="cls-4" d="M104.49,126c6.44,0,6.45-10,0-10s-6.44,10,0,10Z"/><path class="cls-4" d="M125.36,91.79h1a5.21,5.21,0,0,0,3.54-1.46,5,5,0,0,0,0-7.08,5.23,5.23,0,0,0-3.54-1.46h-1a5.16,5.16,0,0,0-3.53,1.46,5,5,0,0,0,0,7.08,5.21,5.21,0,0,0,3.53,1.46Z"/><path class="cls-4" d="M129.16,50.16c6.43,0,6.44-10,0-10s-6.45,10,0,10Z"/><path class="cls-4" d="M155.72,78.84c6.43,0,6.44-10,0-10s-6.45,10,0,10Z"/><path class="cls-4" d="M105.4,61.57v.93a5,5,0,0,0,5,5A5.07,5.07,0,0,0,113.93,66a5.19,5.19,0,0,0,1.47-3.53v-.93a5,5,0,0,0-5-5A5,5,0,0,0,106.86,58a5.16,5.16,0,0,0-1.46,3.53Z"/><path class="cls-4" d="M44,131.6c6.43,0,6.44-10,0-10s-6.45,10,0,10Z"/><path class="cls-4" d="M59.91,163c6.43,0,6.44-10,0-10s-6.45,10,0,10Z"/><path class="cls-4" d="M81.73,146.37c6.43,0,6.44-10,0-10s-6.45,10,0,10Z"/><path class="cls-4" d="M62.75,193.55c6.44,0,6.45-10,0-10s-6.44,10,0,10Z"/><path class="cls-4" d="M73.19,222.23c6.43,0,6.44-10,0-10s-6.45,10,0,10Z"/><path class="cls-4" d="M96.9,190.77c6.44,0,6.45-10,0-10s-6.44,10,0,10Z"/><path class="cls-4" d="M121.57,213.9c6.43,0,6.44-10,0-10s-6.45,10,0,10Z"/></g></g></svg>