<svg xmlns="http://www.w3.org/2000/svg" xmlns:xlink="http://www.w3.org/1999/xlink" viewBox="0 0 306 252"><defs><style>.cls-1{fill:none;}.cls-2{clip-path:url(#clip-path);}.cls-3{fill:#bfe5ea;}.cls-4{fill:#293538;}.cls-5{fill:#84a8b1;}</style><clipPath id="clip-path"><circle id="_Ellipse_" data-name="&lt;Ellipse&gt;" class="cls-1" cx="145.84" cy="129" r="106.8"/></clipPath></defs><title>pesticide design_v3.3_circular</title><g id="BROX"><g class="cls-2"><path id="_Path_" data-name="&lt;Path&gt;" class="cls-3" d="M269,169.56c.16,10.34-5.71,24.23-9.61,31.41-7.72,14.24-34.3,21.64-48.5,25.54-27.89,7.66-61.5,12.72-90.61,9.1-25.89-3.22-43.75-19.22-59.7-39-24.24-30-26-78.49-21.78-115.79-.53-4.75,13.7-35.42,25.69-44.9S96,22.33,110.93,17.54c8.45-2.71,29,1.07,37.89.3,14.27-1.24,29.87,6.54,42.38,12.4,13,6.11,25.44,14.07,37.54,21.86,11.11,7.15,21.06,16.42,27.19,28.14,5.38,10.29,6.35,18.9,9.49,38.68C266.58,126.22,268.91,164.36,269,169.56Z"/><path class="cls-4" d="M162.84,170.52c12.21,1.39,26.79,4.42,38.66-.13,4.45-1.72,2.52-9-2-7.24-11.18,4.3-25.13,1.19-36.66-.13-4.79-.55-4.75,7,0,7.5Z"/><path class="cls-4" d="M175.83,93.39c8.6-2.75,17.57-3.43,26.34-5.42,4.7-1.06,2.71-8.29-2-7.23-8.76,2-17.73,2.67-26.33,5.42-4.58,1.46-2.62,8.71,2,7.23Z"/><path class="cls-4" d="M73.51,97.5c12.82,3.52,26.65,1.78,37-7,3.69-3.12-1.64-8.4-5.3-5.3-8.23,7-19.63,7.79-29.69,5-4.66-1.27-6.65,6-2,7.23Z"/><path class="cls-4" d="M118.5,200.4c9.11-.65,18.21-1.38,27.34-1.78,4.81-.21,4.83-7.71,0-7.5-9.13.4-18.23,1.13-27.34,1.78-4.78.34-4.82,7.84,0,7.5Z"/><path class="cls-4" d="M238,37.48c1,16.31,2.18,32.64,1.9,49a168.06,168.06,0,0,1-1.74,23.82c-1.23,7.59-3.61,14.95-5.41,22.41-3.7,15.37-2.76,29.6,1.94,44.67,2.28,7.33,5.4,14.38,7.55,21.75a80.36,80.36,0,0,1,2.9,22.25c.07,9.65,15.07,9.67,15,0a99.58,99.58,0,0,0-2.37-22.18c-1.73-7.4-4.79-14.36-7.23-21.54S245.8,163,245.2,155.39s1-14.77,2.85-22.06c3.93-15.29,6.5-30.09,6.82-45.92.34-16.67-.91-33.31-1.88-49.93-.56-9.59-15.57-9.66-15,0Z"/><path class="cls-4" d="M84.72,15.38C92.19,33.85,99,53.1,103.87,72.45c4.46,17.77-1.67,36.48-4.71,54C96,144.58,96.58,162.78,98.82,181c2.32,18.87,5.5,37.88,12.08,55.78,3.31,9,17.81,5.1,14.47-4-6.5-17.67-9.86-36.54-12-55.2-2-18.24-2-36,1.49-54s8-36.81,3.42-55.09c-4.85-19.35-11.68-38.59-19.14-57.07C97.68,7.65,94.18,5,90,6.15c-3.55,1-6.77,5.44-5.24,9.23Z"/><path class="cls-4" d="M162,236a620.07,620.07,0,0,1,2.81-100.49c.85-7.72,3.13-14,6.45-20.87a49.93,49.93,0,0,0,4.83-22.18c0-14.78-5.09-28.82-8.83-42.92A113.88,113.88,0,0,1,163.63,25c-.4-8.95-1.46-17.34-5.28-25.55-4.06-8.74-17-1.13-12.95,7.57,3.13,6.72,3,14.18,3.37,21.42a113.7,113.7,0,0,0,3,21.09c3.28,13.66,8.89,27.16,9.3,41.35A38.07,38.07,0,0,1,156.88,110a65.87,65.87,0,0,0-6.6,21.81c-2.1,15.82-3,32.07-3.67,48-.8,18.74-.57,37.5.41,56.22.5,9.61,15.51,9.67,15,0Z"/><path class="cls-4" d="M200.62,232.5c.08-17.71,2.24-35.26,5.39-52.66s7.54-34.4,8.86-52,1.79-34.77-.4-52.3c-1.09-8.69-2.41-17.35-3-26.09s-1-17.33-2.75-25.89c-1.91-9.46-16.37-5.46-14.47,4,1.7,8.44,1.73,17,2.51,25.59.8,8.75,2.19,17.44,3.2,26.17,2,16.81,1.19,33.57-.19,50.4s-6,33.31-8.85,50c-3,17.48-5.18,35.14-5.26,52.89-.05,9.65,14.95,9.67,15,0Z"/><path class="cls-4" d="M55.17,40.84C57.3,55.67,60.24,70.46,61,85.46s-.23,30.09-1,45-2.86,30-2.81,45c0,7.19.84,14.31,1.27,21.47.41,6.78.77,12.19,5.17,17.68,2.55,3.19,7.94,2.61,10.61,0,3.15-3.09,2.51-7.46,0-10.6-1.2-1.5-.68-5.36-.78-7.08-.18-3.11-.5-6.21-.72-9.32a170.34,170.34,0,0,1-.31-20.83c.72-14.77,2.47-29.45,2.83-44.23.34-14,1.49-27.93.38-41.88-1.17-14.72-3.92-29.26-6-43.85-.57-4-5.67-6.23-9.22-5.24-4.31,1.21-5.82,5.18-5.24,9.23Z"/><path class="cls-5" d="M86.17,125.59c9.65,0,9.67-15,0-15s-9.67,15,0,15Z"/><path class="cls-5" d="M37,150.92c9.65,0,9.66-15,0-15s-9.67,15,0,15Z"/><path class="cls-5" d="M228.34,82.92c9.65,0,9.67-15,0-15s-9.67,15,0,15Z"/><path class="cls-5" d="M223.17,195.09c9.65,0,9.67-15,0-15s-9.67,15,0,15Z"/><path class="cls-5" d="M187.84,116.92c9.65,0,9.67-15,0-15s-9.67,15,0,15Z"/><path class="cls-5" d="M179.84,150.92c9.65,0,9.67-15,0-15s-9.67,15,0,15Z"/><path class="cls-5" d="M125.84,176.25c9.65,0,9.67-15,0-15s-9.67,15,0,15Z"/><path class="cls-5" d="M137.17,82.92c9.65,0,9.67-15,0-15s-9.67,15,0,15Z"/><path class="cls-5" d="M129.24,45.42c9.65,0,9.67-15,0-15s-9.67,15,0,15Z"/></g></g></svg>