<svg xmlns="http://www.w3.org/2000/svg" xmlns:xlink="http://www.w3.org/1999/xlink" viewBox="0 0 306 252"><defs><style>.cls-1{fill:none;}.cls-2{clip-path:url(#clip-path);}.cls-3{fill:#bfe5ea;}.cls-4{fill:#84a8b1;}.cls-5{fill:#293538;}</style><clipPath id="clip-path"><circle id="_Ellipse_" data-name="&lt;Ellipse&gt;" class="cls-1" cx="149.33" cy="117.19" r="101.84"/></clipPath></defs><title>pesticide design_v3.3_circular</title><g id="CHTM"><g class="cls-2"><path class="cls-3" d="M276.49,133.64A91.72,91.72,0,0,0,268,94c-3.25-7.11-7.44-13.76-10.92-20.71-2.9-5.79-4.59-12.18-7.1-18.35-6.15-15.17-15.09-32.7-33-37.86-29.88-8.6-65.06-8.77-95-.42-10.37,2.9-23.15,4.41-31.78,10.84-8,6-14.93,14.13-21.54,21.3C56.82,61.64,55.28,78.24,46.18,92.34c-3.88,6-6,15-7.55,21.7-2.57,17.33-2.32,32.21,2.35,49.34,4.58,16.77,7.42,31.94,23.27,42.69,20.66,14,50,20.91,75.73,19.82,14.37-.61,27.75-4,42-5.19,8.84-.71,17.5.42,26.35-.65,16.71-2,37.68-7,46.54-21C268,178.25,276.23,156.09,276.49,133.64Z"/><path class="cls-4" d="M190.22,219.21c.6,1.19.51,3,.61.9,0-1.19,0-2.38.09-3.56.17-3.15.51-6.3.76-9.44a64.39,64.39,0,0,0-2.22-21.38c-4.13-16-11.32-33.17-21.35-46.45-9.5-12.59-21.65-22.12-35.27-29.92C118.15,100.94,103.33,93.54,92,80.6,79.62,66.49,72.24,48.71,63.72,32.21,58.55,22.2,43.45,31,48.61,41,56.24,55.83,63,71.23,73,84.66c10.6,14.3,23.86,24.54,39.27,33.23,13.51,7.61,26.94,14.74,37.47,26.38s17.39,27.52,21.88,42.55A58,58,0,0,1,174,209.45c-.53,6.1-1.72,12.89,1.13,18.59,5,10.08,20.14,1.22,15.11-8.83Z"/><path class="cls-4" d="M157.1,127.55c-3.17-8.79.21-18.08,3.87-26.23,4.2-9.38,9.18-18.34,13-27.89,8.12-20.09,13.46-44.28.21-63.47-6.36-9.21-21.53-.47-15.11,8.83,11.5,16.66,3.45,38.81-4.34,55.42-8.2,17.48-21.79,37.92-14.54,58,1.6,4.44,6,7.43,10.76,6.11,4.29-1.18,7.73-6.3,6.11-10.76Z"/><path class="cls-4" d="M193.89,206.66c10.44-9.26,18.5-19,21.12-33.08,2.69-14.47.34-29.11.92-43.69.54-13.65,2.9-27.59,8.76-40a126.76,126.76,0,0,1,10.57-18.23c3.56-5.14,9-9.19,11.42-15,1.85-4.35,1.31-9.38-3.13-12-3.68-2.14-10.12-1.23-12,3.14-2.27,5.36-7.57,9.55-10.92,14.31A128.34,128.34,0,0,0,210,80.21c-6.22,12.92-9.54,26.64-10.93,40.87-1.37,14,.49,27.78-.23,41.7-.33,6.27-1.53,13-4.84,18.39-3.15,5.14-8,9.16-12.44,13.12-8.44,7.49,4,19.83,12.37,12.37Z"/><path class="cls-4" d="M213.32,143a53.56,53.56,0,0,1,24-25.44c9.43-5.1,17-10.35,21-20.75,2.29-6-7.37-8.63-9.64-2.66-3.77,9.93-14.07,13-22.33,18.18-9.66,6.1-16.83,15.38-21.67,25.63-2.73,5.78,5.89,10.87,8.64,5Z"/><path class="cls-4" d="M37.68,120c5.94,7.84,20.52,10,29.67,8.7,7.31-1,13.94-4.19,20.13-8.08,3.3-2.07,6.78-4.91,10.77-5.31,3.55-.34,7.17.41,10.75.17,6.39-.43,6.43-10.43,0-10-6.09.41-12-1-17.8,1.46s-10.91,7-16.91,9.51a28.41,28.41,0,0,1-16.36,2.08C55,118,48.11,117.34,46.32,115c-3.84-5.07-12.53-.09-8.64,5Z"/><path class="cls-4" d="M95.82,84.48c-3.19-5.23,1.69-16,2.93-21.39,2.11-9.24,3.34-18.59,1.07-27.92-1.52-6.25-11.17-3.6-9.64,2.66,2.44,10-.4,20.29-2.88,30-1.76,6.9-4.12,15.1-.12,21.65,3.35,5.49,12,.47,8.64-5Z"/><path class="cls-5" d="M59.33,116.42c4.83,0,4.84-7.5,0-7.5s-4.83,7.5,0,7.5Z"/><path class="cls-5" d="M70.33,114.75c4.83,0,4.84-7.5,0-7.5s-4.83,7.5,0,7.5Z"/><path class="cls-5" d="M81.33,109.75c4.83,0,4.84-7.5,0-7.5s-4.83,7.5,0,7.5Z"/><path class="cls-5" d="M223,145.42c4.83,0,4.83-7.5,0-7.5s-4.83,7.5,0,7.5Z"/><path class="cls-5" d="M229.67,135.08c4.82,0,4.83-7.5,0-7.5s-4.84,7.5,0,7.5Z"/><path class="cls-5" d="M239.67,129.75c4.82,0,4.83-7.5,0-7.5s-4.84,7.5,0,7.5Z"/><path class="cls-5" d="M249.67,121.75c4.82,0,4.83-7.5,0-7.5s-4.84,7.5,0,7.5Z"/><path class="cls-5" d="M224.33,110.42c4.83,0,4.84-7.5,0-7.5s-4.83,7.5,0,7.5Z"/><path class="cls-5" d="M228.67,99.75c4.82,0,4.83-7.5,0-7.5s-4.84,7.5,0,7.5Z"/><path class="cls-5" d="M234,87.75c4.83,0,4.83-7.5,0-7.5s-4.83,7.5,0,7.5Z"/><path class="cls-5" d="M64.33,144.92c8,0,8.06-12.5,0-12.5s-8,12.5,0,12.5Z"/><path class="cls-5" d="M84.33,138.92c8,0,8.06-12.5,0-12.5s-8,12.5,0,12.5Z"/><path class="cls-5" d="M103,133.25c8,0,8.06-12.5,0-12.5s-8.06,12.5,0,12.5Z"/><path class="cls-5" d="M122,143.25c8,0,8.06-12.5,0-12.5s-8.06,12.5,0,12.5Z"/><path class="cls-5" d="M140,156.58c8,0,8.06-12.5,0-12.5s-8.06,12.5,0,12.5Z"/><path class="cls-5" d="M152.33,171.25c8,0,8.06-12.5,0-12.5s-8.05,12.5,0,12.5Z"/><path class="cls-5" d="M159.67,191.92c8,0,8.05-12.5,0-12.5s-8.06,12.5,0,12.5Z"/><path class="cls-5" d="M162.67,212.58c8,0,8.05-12.5,0-12.5s-8.06,12.5,0,12.5Z"/><path class="cls-5" d="M132.67,101.58c8,0,8.05-12.5,0-12.5s-8.06,12.5,0,12.5Z"/><path class="cls-5" d="M139.67,81.25c8,0,8.05-12.5,0-12.5s-8.06,12.5,0,12.5Z"/><path class="cls-5" d="M149.33,63.92c8,0,8.06-12.5,0-12.5s-8.05,12.5,0,12.5Z"/><path class="cls-5" d="M154,47.25c8,0,8.06-12.5,0-12.5s-8.06,12.5,0,12.5Z"/><path class="cls-5" d="M150.67,28.92c8,0,8.05-12.5,0-12.5s-8.06,12.5,0,12.5Z"/><path class="cls-5" d="M168.33,129.58c8,0,8.06-12.5,0-12.5s-8.05,12.5,0,12.5Z"/><path class="cls-5" d="M170.33,111.58c8,0,8.06-12.5,0-12.5s-8.05,12.5,0,12.5Z"/><path class="cls-5" d="M180.67,92.92c8,0,8.05-12.5,0-12.5s-8.06,12.5,0,12.5Z"/><path class="cls-5" d="M187.67,73.92c8,0,8.05-12.5,0-12.5s-8.06,12.5,0,12.5Z"/><path class="cls-5" d="M191.67,53.25c8,0,8.05-12.5,0-12.5s-8.06,12.5,0,12.5Z"/><path class="cls-5" d="M190,34.58c8,0,8.06-12.5,0-12.5s-8.06,12.5,0,12.5Z"/></g></g></svg>