<svg id="CLOM" xmlns="http://www.w3.org/2000/svg" xmlns:xlink="http://www.w3.org/1999/xlink" viewBox="0 0 306 252"><defs><style>.cls-1{fill:none;}.cls-2{clip-path:url(#clip-path);}.cls-3{fill:#293538;}.cls-4{fill:#bfe5ea;}</style><clipPath id="clip-path"><circle id="_Ellipse_" data-name="&lt;Ellipse&gt;" class="cls-1" cx="156.5" cy="124.38" r="97.12"/></clipPath></defs><title>pesticide design_v3.3_circular</title><g class="cls-2"><path id="_Path_" data-name="&lt;Path&gt;" class="cls-3" d="M276.07,142.47C271.45,156.7,266,170.69,261.76,185c-3.52,11.89-6,15-14.77,22.49-13.61,11.72-26.82,24.32-44.9,23.48-19-.88-72.67-11.3-83.67-13.23-14.09-2.47-32-3.17-42.5-13.67-8.2-8.19-13.78-20.4-20.28-29.87-9.55-13.92-9.2-30.31-6.47-46.44,1.47-8.73-.86-18.38,2.53-30,2-29.07,16.72-63.61,44.53-74.13,24.23-9.17,45-5.94,69.56-1.59,21.77,3.85,42.64,12.78,63,21.59,8.58,3.72,16.69,6.16,23.1,13,15,16,35.45,40.42,30.37,63.59C280.6,127.76,278.44,135.14,276.07,142.47Z"/><path class="cls-4" d="M72,14.5C71.49,22,73.92,29,75.91,36.11c2.18,7.75,2.92,15.79,3.71,23.78q2.66,26.76,4.11,53.63c1,17.59,1.54,35.2,2.19,52.8.59,16.09.06,33.2,5.76,48.51,2.22,6,11.89,3.39,9.64-2.66-5.72-15.37-4.92-32.64-5.51-48.79-.63-17.27-1.23-34.55-2.18-51.81s-2.3-34.49-4-51.68c-.77-7.76-1.36-15.76-3.23-23.34-1.8-7.31-4.91-14.39-4.39-22,.44-6.42-9.56-6.4-10,0Z"/><path class="cls-4" d="M160.32,234.48c-7.06-15.68-6.86-33.58-9-50.34-2.5-20-5.31-40-7.5-60.1-2.16-19.79-2.61-39.68-4.49-59.49-1.63-17.21-2.56-35.68-9.05-51.88-2.36-5.9-12-3.32-9.64,2.66,6.74,16.83,7.66,36.27,9.13,54.18,1.65,20.17,2.4,40.34,4.71,60.45,2.27,19.83,5.27,39.57,7.47,59.41,1.89,17,2.54,34.26,9.69,50.15,2.64,5.86,11.26.78,8.64-5Z"/><path class="cls-4" d="M198.82,237.17c-1.52-8.58-4.49-16.82-6-25.42-1.61-9-2.48-18.09-3.35-27.18-1.71-17.86-2.73-35.78-2.91-53.71-.18-18.2-.11-36.38-1.36-54.55C184,59.42,179.94,42.48,181,25.5c.4-6.43-9.6-6.4-10,0-1.1,17.6,3.17,35.23,4.3,52.76,1.17,18.17,1,36.34,1.25,54.53.24,17.94,1.33,35.85,3.08,53.71.85,8.7,1.74,17.41,3.19,26,1.56,9.25,4.73,18.08,6.36,27.3,1.12,6.33,10.76,3.64,9.64-2.66Z"/><path class="cls-4" d="M255.54,239.46c-3.47-3.75-3.14-11.61-3.94-16.45-1.49-8.92-3.13-17.79-4.4-26.75-2.68-18.77-6.07-37.59-7.57-56.5-2.91-36.54,6.85-73.57-2.81-109.59-1.66-6.21-11.31-3.57-9.64,2.66,5,18.77,4.45,38.2,3.35,57.43s-2.27,38-.17,57.15,5.15,38.11,8,57.07c1.22,8.17,2.89,16.27,4.06,24.44.89,6.13,1.65,12.87,6,17.62s11.44-2.35,7.08-7.08Z"/><path class="cls-4" d="M175.5,62c16.09,0,16.11-25,0-25s-16.11,25,0,25Z"/><path class="cls-4" d="M180,105.5c16.09,0,16.11-25,0-25s-16.11,25,0,25Z"/><path class="cls-4" d="M180.5,150c16.09,0,16.11-25,0-25s-16.11,25,0,25Z"/><path class="cls-4" d="M185.5,193.5H185a9.41,9.41,0,0,0-4.82,1.08,11.2,11.2,0,0,0-6.6,6.6A9.41,9.41,0,0,0,172.5,206l.45,3.32a12.44,12.44,0,0,0,3.21,5.52l2.53,1.95A12.48,12.48,0,0,0,185,218.5h.5a9.41,9.41,0,0,0,4.82-1.08,11.2,11.2,0,0,0,6.6-6.6A9.41,9.41,0,0,0,198,206l-.45-3.32a12.44,12.44,0,0,0-3.21-5.52l-2.53-1.95a12.48,12.48,0,0,0-6.31-1.71Z"/><path class="cls-4" d="M234.5,68a10.55,10.55,0,0,0-3.66.49l-3,1.26c-.89.65-1.75,1.31-2.6,2A12.73,12.73,0,0,0,221.5,81a9.41,9.41,0,0,0,1.08,4.82,11.2,11.2,0,0,0,6.6,6.6A9.41,9.41,0,0,0,234,93.5l3.32-.45a12.44,12.44,0,0,0,5.52-3.21l1.95-2.53A12.48,12.48,0,0,0,246.5,81a.65.65,0,0,1,0-.24l-.45,3.32,0-.09-1.26,3,0-.08-4.49,4.49.08,0-3,1.26.09,0-3.32.45a.65.65,0,0,1,.24,0,9.41,9.41,0,0,0,4.82-1.08,11.2,11.2,0,0,0,6.6-6.6A9.41,9.41,0,0,0,247,80.5l-.45-3.32a12.44,12.44,0,0,0-3.21-5.52l-2.53-2A12.48,12.48,0,0,0,234.5,68Z"/><path class="cls-4" d="M222.66,137.34l.5.5a9.29,9.29,0,0,0,4,2.58,11.3,11.3,0,0,0,9.64,0,9.29,9.29,0,0,0,4-2.58l1.95-2.53A12.48,12.48,0,0,0,244.5,129l-.45-3.32a12.44,12.44,0,0,0-3.21-5.52l-.5-.5a9.29,9.29,0,0,0-4-2.58,11.3,11.3,0,0,0-9.64,0,9.29,9.29,0,0,0-4,2.58l-1.95,2.53A12.48,12.48,0,0,0,219,128.5l.45,3.32a12.44,12.44,0,0,0,3.21,5.52Z"/><path class="cls-4" d="M238.5,187c16.09,0,16.11-25,0-25s-16.11,25,0,25Z"/><path class="cls-4" d="M243,219c16.09,0,16.11-25,0-25s-16.11,25,0,25Z"/><path class="cls-4" d="M156.28,185.61v-.5a9.45,9.45,0,0,0-1.08-4.81,11.17,11.17,0,0,0-6.61-6.61,9.47,9.47,0,0,0-4.81-1.08l-3.33.45a12.46,12.46,0,0,0-5.51,3.21l-2,2.53a12.37,12.37,0,0,0-1.7,6.31v.5a13.8,13.8,0,0,0,3.66,8.84,9.29,9.29,0,0,0,4,2.58,9.31,9.31,0,0,0,4.82,1.08l3.32-.45a12.44,12.44,0,0,0,5.52-3.21l1.95-2.53a12.48,12.48,0,0,0,1.71-6.31Z"/><path class="cls-4" d="M89,147.5c16.09,0,16.11-25,0-25s-16.11,25,0,25Z"/><path class="cls-4" d="M128.5,148.5v.31c0,16.09,25,16.11,25,0v-.31c0-16.09-25-16.11-25,0v.31c0,16.09,25,16.11,25,0v-.31c0-16.09-25-16.11-25,0Z"/><path class="cls-4" d="M122.5,72v.5a9.41,9.41,0,0,0,1.08,4.82,11.2,11.2,0,0,0,6.6,6.6A9.41,9.41,0,0,0,135,85l3.32-.45a12.44,12.44,0,0,0,5.52-3.21l1.95-2.53a12.48,12.48,0,0,0,1.71-6.31V72a9.41,9.41,0,0,0-1.08-4.82,11.2,11.2,0,0,0-6.6-6.6A9.41,9.41,0,0,0,135,59.5l-3.32.45a12.44,12.44,0,0,0-5.52,3.21l-2,2.53A12.48,12.48,0,0,0,122.5,72Z"/><path class="cls-4" d="M74,97.5V98a9.41,9.41,0,0,0,1.08,4.82,11.2,11.2,0,0,0,6.6,6.6,9.41,9.41,0,0,0,4.82,1.08l3.32-.45a12.44,12.44,0,0,0,5.52-3.21l2-2.53A12.48,12.48,0,0,0,99,98v-.5a9.41,9.41,0,0,0-1.08-4.82,11.2,11.2,0,0,0-6.6-6.6A9.41,9.41,0,0,0,86.5,85l-3.32.45a12.44,12.44,0,0,0-5.52,3.21l-2,2.53A12.48,12.48,0,0,0,74,97.5Z"/><path class="cls-4" d="M97.5,66.5v-1a9.41,9.41,0,0,0-1.08-4.82,11.2,11.2,0,0,0-6.6-6.6A9.41,9.41,0,0,0,85,53l-3.32.45a12.44,12.44,0,0,0-5.52,3.21l-2,2.53A12.48,12.48,0,0,0,72.5,65.5v1a9.41,9.41,0,0,0,1.08,4.82,11.2,11.2,0,0,0,6.6,6.6A9.41,9.41,0,0,0,85,79l3.32-.45a12.44,12.44,0,0,0,5.52-3.21l2-2.53A12.48,12.48,0,0,0,97.5,66.5Z"/><path class="cls-4" d="M78.5,189.5v.31c0,16.09,25,16.11,25,0v-.31c0-16.09-25-16.11-25,0v.31c0,16.09,25,16.11,25,0v-.31c0-16.09-25-16.11-25,0Z"/></g></svg>