<svg xmlns="http://www.w3.org/2000/svg" xmlns:xlink="http://www.w3.org/1999/xlink" viewBox="0 0 306 252"><defs><style>.cls-1{fill:none;}.cls-2{clip-path:url(#clip-path);}.cls-3{fill:#84a8b1;}.cls-4{fill:#293538;}</style><clipPath id="clip-path"><circle id="_Ellipse_" data-name="&lt;Ellipse&gt;" class="cls-1" cx="159.23" cy="129.85" r="100.72"/></clipPath></defs><title>pesticide design_v3.3_circular</title><g id="CLOP"><g class="cls-2"><path class="cls-3" d="M269.4,133.44a102.39,102.39,0,0,0,0-20.64c-1.28-12.58-6.74-22.38-12.39-33.55-5.57-11-7.31-22.93-16.57-31.35-6.73-6.11-13.77-8.5-22.39-10.52-6.17-1.46-10.67-4.21-16.51-6.48-5.14-2-9.86-4.18-15.37-4.94-5.71-.8-11.43.37-17-.06-5.37-.41-9.33-1.68-15.06-.8-13.1,2-29.33,3.28-41.39,8.86-9.75,4.51-21.48,8-30.13,14.48C71.53,56.72,62.74,70,55.78,81.79c-5.2,8.83-7.08,19.8-9.21,29.73-1.12,5.24-3,11.07-2.57,16.48,1.45,10.27,3.42,20.48,4.5,31.09.57,5.6.31,11.14,3,16.13,3.44,6.45,9.8,11.48,14.39,17,7.45,9,15.94,22.3,27.17,26.86,10.49,4.26,23.75,4.4,34.76,6.38a204.31,204.31,0,0,1,21.32,4.6c12.12,3.54,24.61,4.85,37.39,4.91,14.18.06,24.94-6.82,37.85-12.41,5.57-2.41,13.92-3.67,18.41-7.87,4-3.78,6.55-11.16,9-16,6.06-11.94,7.86-24.6,11.67-37.25A148.05,148.05,0,0,0,269.4,133.44Z"/><path class="cls-4" d="M173.34,50.45c6.95,3.69,10.66,10.82,14.38,17.43,3.87,6.86,7.79,13.9,13.89,19.06,4.89,4.13,12-2.91,7.07-7.07-12.62-10.67-15-29.94-30.29-38.05-5.69-3-10.74,5.62-5,8.63Z"/><path class="cls-4" d="M123.35,82.46c1.21,3.73-1,6.54-3.2,9.36-2.66,3.39-5.36,6.72-7.92,10.19a248.27,248.27,0,0,0-14.59,22.3c-3.25,5.57,5.39,10.61,8.64,5.05a234.63,234.63,0,0,1,18.16-27C129.68,95.7,136,89,133,79.8c-2-6.1-11.63-3.49-9.64,2.66Z"/><path class="cls-4" d="M106.06,80.88c-8.34,15.1-19.56,29-29.37,43.2-3.66,5.31,5,10.32,8.64,5,9.8-14.18,21-28.11,29.37-43.21,3.11-5.63-5.52-10.68-8.64-5Z"/><path class="cls-4" d="M154.49,121.12c-3.13,16.76-8.87,32.8-18.21,47.12-3.52,5.41,5.13,10.43,8.64,5,9.76-15,15.94-32,19.21-49.51,1.17-6.29-8.46-9-9.64-2.66Z"/><path class="cls-4" d="M161.35,181.69a314.11,314.11,0,0,1,8.79,37.45c1.09,6.33,10.73,3.64,9.65-2.66A314.61,314.61,0,0,0,171,179c-1.85-6.14-11.5-3.52-9.64,2.66Z"/><path class="cls-4" d="M86.32,172.37l15.09,36.76c2.41,5.88,12.09,3.3,9.65-2.66L96,169.72c-2.42-5.88-12.09-3.3-9.65,2.65Z"/><path class="cls-4" d="M176.77,182.05a166.52,166.52,0,0,1,9.84,32.87c1.2,6.31,10.84,3.64,9.64-2.66a166.52,166.52,0,0,0-9.84-32.87c-2.43-5.86-12.11-3.29-9.64,2.66Z"/><path class="cls-4" d="M164.55,11.63a74,74,0,0,1-7.09,24.79c-2.8,5.76,5.82,10.84,8.63,5a88,88,0,0,0,8.46-29.83c.67-6.39-9.34-6.35-10,0Z"/><path class="cls-4" d="M124.7,215.48q11.22,17.85,23.17,35.22c3.62,5.27,12.29.27,8.63-5q-11.94-17.37-23.17-35.22c-3.42-5.43-12.07-.42-8.63,5Z"/><path class="cls-4" d="M231.62,141.38a84.94,84.94,0,0,1,6.56,32.77c0,6.43,10,6.44,10,0a92.34,92.34,0,0,0-6.92-35.43c-2.41-5.87-12.09-3.3-9.64,2.66Z"/><path class="cls-4" d="M269.91,80.5c-37.14,2.3-74-3.89-111-5.74-37.87-1.89-75,3.74-112.25,10-9.5,1.6-5.47,16,4,14.46,36.62-6.15,73-11.37,110.19-9.36,36.35,2,72.53,7.9,109,5.64,9.59-.59,9.66-15.6,0-15Z"/><path class="cls-4" d="M50.69,142.48q26.84-4.48,53.88-7.43c18-1.92,36.24-4,54.34-3.59s35.15,6,52.85,9.37a168.26,168.26,0,0,0,53.08,1.7c4-.52,7.5-3.08,7.5-7.5,0-3.65-3.46-8-7.5-7.5a159.55,159.55,0,0,1-54.73-2.33c-17.71-3.88-34.87-8.58-53.14-8.77-18.12-.18-36.35,1.87-54.34,3.83Q74.57,123.34,46.71,128c-9.5,1.59-5.47,16,4,14.46Z"/><path class="cls-4" d="M66,34.67Q92.54,40.58,119.42,45c18.19,3,36.65,6,55.08,6.91,18.25.88,35.66-2.84,53.55-5.85a155.63,155.63,0,0,1,53.73.24c9.44,1.73,13.49-12.73,4-14.46a169.73,169.73,0,0,0-53.08-1.53c-18.19,2.4-35.81,7.2-54.3,6.74-18.09-.45-36.19-3.47-54-6.36Q97,26.26,70,20.2c-9.41-2.09-13.43,12.37-4,14.47Z"/><path class="cls-4" d="M262,164.58a466.58,466.58,0,0,1-96.88,4.21c-29.22-1.75-58.52-7.09-87.85-4.55-16.18,1.4-31.77,5.24-46.22,12.76-8.56,4.47-1,17.41,7.57,13,32.42-16.89,70.83-11.13,105.69-7.84A500.44,500.44,0,0,0,266,179.05c4-.6,6.24-5.66,5.24-9.23-1.2-4.29-5.18-5.84-9.22-5.24Z"/><path class="cls-4" d="M41.48,224.25c36.48-11,74.73-7.61,112-3.16,18.72,2.23,37.41,4.78,56.22,6.16,20.22,1.47,40.41.95,60.65.2,9.62-.35,9.67-15.35,0-15-20.23.75-40.44,1.27-60.65-.2-19.44-1.42-38.75-4.1-58.09-6.39-38-4.49-76.93-7.26-114.11,3.92-9.22,2.78-5.29,17.26,4,14.47Z"/></g></g></svg>