<svg xmlns="http://www.w3.org/2000/svg" xmlns:xlink="http://www.w3.org/1999/xlink" viewBox="0 0 306 252"><defs><style>.cls-1{fill:none;}.cls-2{clip-path:url(#clip-path);}.cls-3{fill:#293538;}.cls-4{fill:#84a8b1;}.cls-5{fill:#6e94a0;}.cls-6{fill:#bfe5ea;}</style><clipPath id="clip-path"><circle id="_Ellipse_" data-name="&lt;Ellipse&gt;" class="cls-1" cx="148" cy="138.67" r="102"/></clipPath></defs><title>pesticide design_v3.3_circular</title><g id="DCIM"><g class="cls-2"><path class="cls-3" d="M193.91,249.11q3.87-.53,7.65-1.15c8.35-1.39,12.75-3.52,18.31-10.69,19.14-24.64,39-56.48,38.1-91.8-.34-12.55-.27-25.94-4.14-37.69-5.31-16.13-14.06-31.61-21.89-46.13-4.22-7.82-7.12-15.8-14.27-19.66-9.45-5.1-19.73-6.83-29.6-10.28-8.19-2.86-16-6.36-24.53-7.63-13.31-2-26.73,4.11-39.91-.53-4.07-1.42-16.29-.9-17,0h-.17C96.61,23.8,86.36,34.72,79.28,42,68,53.52,58.19,67.64,53.06,84.47c-6.87,22.55-8.82,45.75-10.21,69.58-.66,11.4-.16,19.7,5.42,29.37,12.22,21.18,30.55,38.83,48,53.41,9.68,8.07,17.84,13.36,29.54,14.24a314.59,314.59,0,0,0,40.84.49C175.6,251.1,184.89,250.32,193.91,249.11Z"/><path class="cls-4" d="M35.12,45a168.11,168.11,0,0,1,15.16,23.2c4.69,9,7.42,18.92,11.8,28.1,1.68,3.5,6.93,1.6,7-1.89a10.16,10.16,0,0,0-.18-3c-.63-4.71-8.13-4.77-7.5,0a10.16,10.16,0,0,1,.18,3l7-1.89c-4.39-9.18-7.11-19.06-11.8-28.11a168.78,168.78,0,0,0-15.17-23.2c-2.86-3.81-9.37-.08-6.47,3.79Z"/><path class="cls-4" d="M58.82,52.1c4.71,7.74,8.12,16.12,11.35,24.55,2.43,6.37,4.2,13.13,8.42,18.61,1.75,2.28,6.15,2.63,6.85-.89a23.72,23.72,0,0,0,.41-3c.37-4.81-7.13-4.79-7.5,0l-.14,1,6.86-.89c-4.49-5.83-6.24-13.24-8.92-20-3.16-8-6.39-15.85-10.85-23.18-2.5-4.12-9-.36-6.48,3.78Z"/><path class="cls-4" d="M79.54,54.73c1.14,8.54,7,15.71,10.21,23.55,1.37,3.35,5.12,17.13,11,14.77,4.41-1.79,2.48-9-2-7.24.33-.13,2.84,1,3,.63.07-.19-.82-1.37-.92-1.65-.46-1.33-1.27-2.64-1.85-3.94-1-2.33-1.94-4.7-2.93-7.06-2.56-6.12-8-12.41-8.93-19.06-.63-4.71-8.14-4.77-7.5,0Z"/><path class="cls-4" d="M96.88,63.41c3.37,6.73,6.9,13.38,10.24,20.12,2.11,4.25,3.41,9,6.46,12.68s8.34-1.6,5.3-5.3C116,87.42,114.75,82,112.71,78c-3.1-6.13-6.27-12.22-9.36-18.37-2.16-4.31-8.63-.52-6.47,3.79Z"/><path class="cls-4" d="M115.74,71.68c1.8,4.31,4.17,8.25,6.3,12.39,1.85,3.59,2.71,7.25,5.43,10.34,3.2,3.63,8.49-1.7,5.3-5.3-2.1-2.38-2.81-6-4.25-8.83-1.83-3.54-4-6.9-5.55-10.59-1.83-4.39-9.09-2.46-7.23,2Z"/><path class="cls-4" d="M133.27,76.33c2.42,6,5.12,12.07,9.62,16.85,3.32,3.52,8.62-1.79,5.31-5.3-3.57-3.78-5.77-8.77-7.7-13.55-1.77-4.42-9-2.49-7.23,2Z"/><path class="cls-4" d="M129.54,134.6c1.32-1.34,3.21-1.82,4.6-3.13,3.08-2.92-.9-8.1-4.55-5.89-8.7,5.27-15.6,12.9-21.39,21.18-2.77,4,3.73,7.72,6.48,3.79,5-7.21,11.13-13.91,18.7-18.49l-4.55-5.89c-1.34,1.27-3.23,1.75-4.59,3.13-3.39,3.44,1.91,8.75,5.3,5.3Z"/><path class="cls-4" d="M151.21,124.34c-6.34,3.08-11.2,8-16.61,12.43-4.94,4-10.16,7.8-12.26,14.07-1.54,4.58,5.7,6.55,7.23,2,1.7-5.07,7.48-8.37,11.4-11.62,4.54-3.78,8.65-7.78,14-10.39,4.34-2.11.54-8.58-3.79-6.48Z"/><path class="cls-4" d="M172.48,122.31c-14.08,4.84-21.84,18-33,26.87-3.78,3,1.56,8.28,5.31,5.31,10-7.91,17.22-20.66,29.71-25,4.54-1.56,2.59-8.81-2-7.23Z"/><path class="cls-4" d="M194,125.69c-16.09,4.93-24.68,20.09-38.11,28.87-4,2.63-.28,9.13,3.78,6.48,12.7-8.3,21.26-23.5,36.32-28.12,4.6-1.41,2.64-8.66-2-7.23Z"/><path class="cls-4" d="M215.6,132.31c-13.71,7.35-20.95,21.05-31.58,31.76-3.41,3.43,1.89,8.73,5.3,5.3,10.12-10.19,17-23.6,30.07-30.59,4.25-2.28.47-8.75-3.79-6.47Z"/><path class="cls-4" d="M239.36,124.65c-7.9,6-13.8,13.63-19.93,21.33-5.17,6.5-10.79,13.28-11.77,21.81-.55,4.79,7,4.75,7.5,0,.79-6.92,7-13.24,11.14-18.46,5.14-6.48,10.2-13.17,16.85-18.2,3.8-2.88.07-9.39-3.79-6.48Z"/><path class="cls-4" d="M259.58,117.65c-5.73,8.77-12.68,16.63-18.34,25.46-2.78,4.34-5.47,8.74-8.16,13.14-2.26,3.69-5,7.1-6.18,11.34-1.25,4.67,6,6.66,7.24,2,1.07-4,4.22-7.59,6.36-11.09,2.68-4.41,5.4-8.79,8.2-13.12,5.37-8.29,12-15.67,17.35-23.93,2.65-4-3.84-7.82-6.47-3.79Z"/><path class="cls-4" d="M90.09,211.1c6,4.3,8.11,11.55,10.53,18.18,1.76,4.82,4.14,13.1,9.47,15,2.53.89,4.49-1.39,4.75-3.62l-.17,1.12c2.91-3.85-3.6-7.59-6.48-3.79a4.89,4.89,0,0,0-.85,2.67l4.74-3.61c-1-.35-3.29-7.2-3.79-8.54-1.13-3-2.12-6.06-3.34-9-2.46-6-5.73-11-11.08-14.83-3.94-2.8-7.69,3.7-3.78,6.47Z"/><path class="cls-4" d="M105.57,208.36c2.65,8.85,8.11,16.29,11.43,24.81,1.43,3.68,4.15,12.4,9.79,8.93,4.1-2.52.34-9-3.79-6.47,2.93,1,3.85.81,2.78-.65l-.41-.88a28.91,28.91,0,0,0-1.14-2.92A54.47,54.47,0,0,0,122,226c-3.27-6.47-7.09-12.61-9.19-19.6-1.38-4.61-8.62-2.65-7.23,2Z"/><path class="cls-4" d="M121.9,203.86c.13,13.7,10,26.14,16.19,37.72,1.25,2.34,4.1,2.18,5.89.76a5.33,5.33,0,0,0,1.74-3c1.44-4.62-5.8-6.59-7.23-2-.26.76-.19.65.19-.33l5.89.76c-5.46-10.26-15.06-21.84-15.17-33.94-.05-4.82-7.55-4.83-7.5,0Z"/><path class="cls-4" d="M150,204.21l.08,0a3.82,3.82,0,0,0-5.13-1.34l-.28.15a3.82,3.82,0,0,0-1.72,4.23c2.73,12.16,5.65,26.35,14.47,35.73,3.31,3.52,8.61-1.79,5.3-5.31-7.81-8.3-10.12-21.65-12.54-32.41l-1.72,4.23.28-.14L143.6,208a11,11,0,0,0,1.09,1.48c3.07,3.73,8.35-1.61,5.3-5.31Z"/><path class="cls-4" d="M163.79,212.36c.47,8.25,3.92,15.44,7.32,22.83,2.35,5.12,4,11.15,8,15.33,3.32,3.52,8.62-1.79,5.3-5.31-3.07-3.26-4.42-8.52-6.24-12.55-2.94-6.53-6.46-13-6.87-20.3-.27-4.79-7.78-4.83-7.5,0Z"/><path class="cls-4" d="M185.48,215.36c0,10.33,4,23.55,12.32,30.16,3.75,3,9.09-2.31,5.31-5.31-6.91-5.45-10.17-16.29-10.13-24.85,0-4.82-7.47-4.83-7.5,0Z"/><path class="cls-5" d="M204.19,217.36c-.34,8.27,1.29,16.84,5.74,23.9,2.57,4.07,9.06.31,6.48-3.79-3.79-6-5-13.08-4.72-20.11.19-4.82-7.31-4.81-7.5,0Z"/><path class="cls-6" d="M44.89,156.3c3-3.29,11.39-2.21,15.5-2.16,9.62.1,19.26-.36,28.86.49s19.37,2,28.84,3.84c10,1.93,19,5.81,28.35,9.89,14.28,6.25,29.57,14.16,45.48,14.47,13,.26,26.2-2,38.93-4.44s25.49-5.08,37.64-9.38c9-3.19,5.15-17.69-4-14.46-10.76,3.8-22.07,6.28-33.23,8.52-12.59,2.53-25.53,4.86-38.41,4.77-14.83-.09-31.84-9.44-46.53-15.79-18.71-8.08-38.73-11.13-59-12.57-10.09-.72-20.32-.44-30.43-.36-7.61.06-17.15.47-22.61,6.58-6.42,7.17,4.15,17.82,10.6,10.6Z"/><path class="cls-6" d="M89.4,147.79c3.74-5.47,11.56-7.95,17.52-10.14a69.59,69.59,0,0,1,23.68-4.56c17.41-.12,35,2.57,52.17,4.81,8.45,1.1,17,2,25.49,1.47s16.7-2.46,24.83-4.59A200.66,200.66,0,0,0,257.52,127c3.68-1.49,7.25-3.25,10.89-4.84,3.25-1.43,6.34-2.44,8.82-5.15,6.5-7.11-4.08-17.75-10.61-10.61-1.84,2-5.88,2.87-8.36,4-3.79,1.73-7.59,3.27-11.54,4.62A247.19,247.19,0,0,1,222,122.07c-17.76,4.06-34.53,1.25-52.33-.9-17.4-2.11-35.82-4.83-53.23-1.69-8.07,1.45-15.61,4.4-23.08,7.68-6.91,3-12.54,6.74-16.86,13.05-5.47,8,7.53,15.5,13,7.58Z"/><path class="cls-6" d="M256.66,69.1c-18.66-2.88-37.1-1.23-55.31,3.78-9.07,2.49-17.63,6.46-26.84,8.52-9.64,2.15-19.42,3.84-29.19,5.27a272.77,272.77,0,0,1-57.17,2.69C69.42,88.13,51.4,83.35,34,76.43c-3.79-1.5-8.2,1.65-9.22,5.24-1.22,4.25,1.49,7.74,5.24,9.23,35.94,14.29,73.51,16.25,111.6,11.29,19.07-2.47,37.77-5.82,55.91-12.27,17.46-6.21,36.75-9.19,55.15-6.35,4,.62,8-1,9.23-5.24,1-3.55-1.24-8.61-5.24-9.23Z"/><path class="cls-6" d="M63.66,62.9c11.68-3,24.88.11,36.45,2.32,13.27,2.52,25.9,7,38.86,10.72a263.69,263.69,0,0,0,39.21,8.22,156,156,0,0,0,20.49,1.34c6.91,0,13.75-1.22,20.66-1.33,9.65-.16,9.68-15.16,0-15-6.91.11-13.75,1.28-20.66,1.33a149.39,149.39,0,0,1-20.49-1.34c-13.76-1.81-27.3-5.29-40.58-9.25s-26.27-8-40-10.31c-12.48-2.07-25.43-4.33-37.93-1.17-9.35,2.37-5.39,16.84,4,14.47Z"/><path class="cls-6" d="M55,214c7.57.37,14.94-1.9,22.4-2.73,8.73-1,17.38-2.55,26.1-3.58,17.14-2,35.25-3.21,52.32-.12,17.29,3.13,34.05,9.41,51.74,10.25,16.82.79,33.25-3.62,49.43-7.59,9.38-2.29,5.41-16.76-4-14.46-16.15,3.95-32.34,8.41-49.13,6.79s-32.9-8-49.66-10.35-34-1.49-50.72.48c-8.72,1-17.37,2.61-26.1,3.58-7.41.82-14.93,3.1-22.4,2.73-9.65-.47-9.62,14.53,0,15Z"/></g></g></svg>