<svg xmlns="http://www.w3.org/2000/svg" xmlns:xlink="http://www.w3.org/1999/xlink" viewBox="0 0 306 252"><defs><style>.cls-1{fill:none;}.cls-2{clip-path:url(#clip-path);}.cls-3{fill:#293538;}.cls-4{fill:#bfe5ea;}.cls-5{fill:#6e94a0;}</style><clipPath id="clip-path"><circle id="_Ellipse_" data-name="&lt;Ellipse&gt;" class="cls-1" cx="156.01" cy="130.47" r="96.01"/></clipPath></defs><title>pesticide design_v3.3_circular</title><g id="DCPR"><g class="cls-2"><path id="_Path_" data-name="&lt;Path&gt;" class="cls-3" d="M155.28,25.59c-11.39-1.89-22.93-2.54-32.88-.89C97.8,28.79,83.18,43.19,72.11,64.8c-5.38,10.49-7.76,20.7-11.86,31.78-5,13.61-12.66,26.94-12.1,41.91,1.13,29.8,21.67,63.19,46,79,11,7.19,25.39,9.77,37.93,13.55,11.22,3.39,23.82,6.89,35,3.64,34.83-3.49,75.86-16.05,90-51.41C267,158.62,276,137.67,272,110.69c-3.58-24.27-23.08-36.86-42.2-49.84C216.39,51.73,202.28,39.18,187,33.8A193.81,193.81,0,0,0,155.28,25.59Z"/><path class="cls-4" d="M154.66,125.28c13.05-1.86,25.65-7.53,39-6.53,4.81.36,4.79-7.14,0-7.5-14-1-27.29,4.85-41,6.8-4.76.68-2.73,7.91,2,7.23Z"/><path class="cls-4" d="M159.33,169.28c10.24-2.63,20.28-6,30.67-8,4.73-.91,2.73-8.14-2-7.23-10.39,2-20.43,5.37-30.66,8-4.68,1.2-2.7,8.44,2,7.23Z"/><path class="cls-5" d="M240.67,183.42A176,176,0,0,0,267,181.28c4.75-.74,2.73-8-2-7.23a161.07,161.07,0,0,1-24.33,1.87c-4.83,0-4.84,7.52,0,7.5Z"/><path class="cls-4" d="M101.33,79.42c12,1.09,23.43-2.72,35.34-3.34,4.8-.25,4.83-7.75,0-7.5-11.9.62-23.35,4.42-35.34,3.34-4.8-.44-4.77,7.06,0,7.5Z"/><path class="cls-4" d="M86.67,183.17c9.65,0,9.66-15,0-15s-9.67,15,0,15Z"/><path class="cls-4" d="M85.33,157.83c9.66,0,9.67-15,0-15s-9.66,15,0,15Z"/><path class="cls-4" d="M116,59.17c9.65,0,9.67-15,0-15s-9.67,15,0,15Z"/><path class="cls-4" d="M124,111.17c9.65,0,9.67-15,0-15s-9.67,15,0,15Z"/><path class="cls-4" d="M172,145.17c9.65,0,9.67-15,0-15s-9.67,15,0,15Z"/><path class="cls-4" d="M259.67,123.17c9.65,0,9.66-15,0-15s-9.67,15,0,15Z"/><path class="cls-4" d="M258.33,148.83c9.66,0,9.67-15,0-15s-9.66,15,0,15Z"/><path class="cls-4" d="M114.5,225c0-19.84-.89-39.65-1.71-59.47-.4-9.87-.79-19.75-1-29.63-.23-9.14.35-18.48-.54-27.58-1.48-15.09-9.09-27.61-13.57-41.8C92.89,51.43,99.11,36.19,100.5,21c.88-9.61-14.13-9.55-15,0-1.43,15.56-7.43,30.78-3.21,46.45C86,81.34,94.65,93.83,96.22,108.32c1,9.07.31,18.46.54,27.58.24,9.88.63,19.76,1,29.63.82,19.82,1.68,39.63,1.71,59.47,0,9.65,15,9.67,15,0Z"/><path class="cls-4" d="M132.5,16c.08,32.66,4.83,65,8.32,97.39,1.75,16.19,3.62,32.64,3.31,48.94-.29,15.69-3.06,31.18-4.66,46.75-1.89,18.42.43,36.51,0,54.92-.21,9.66,14.79,9.65,15,0,.35-16.17-1.88-32.23-.62-48.4,1.21-15.63,4.07-31.09,5-46.74.95-16.22-.71-32.6-2.34-48.74s-3.68-32-5.42-48A531.05,531.05,0,0,1,147.5,16c0-9.65-15-9.67-15,0Z"/><path class="cls-4" d="M197.23,252c5.32-37.79-.74-76.32,5.48-114,1.45-8.77,3.53-17.29,4.21-26.19a184.78,184.78,0,0,0-.13-26.62c-.59-8.5-1.73-16.92-2.81-25.36-1.14-8.89-2.2-18.11.25-26.87,2.61-9.31-11.86-13.28-14.46-4-4.81,17.19.31,35.38,1.75,52.72a201.89,201.89,0,0,1,.62,26.6c-.45,8.79-2.46,17.07-3.89,25.71-6.24,37.75-.16,76.17-5.48,114-.57,4,1,8,5.24,9.22,3.5,1,8.66-1.23,9.22-5.24Z"/><path class="cls-4" d="M232.5,35c0,33.83-1.39,67.64-2.61,101.44-1.08,29.68-.68,59.85,7.88,88.55,2.75,9.23,17.23,5.3,14.46-4-8.39-28.14-8.33-57.47-7.27-86.53,1.2-33.15,2.52-66.3,2.54-99.48,0-9.65-15-9.67-15,0Z"/><path class="cls-4" d="M45.5,86c.18,20.62,5.15,40.47,9.38,60.52,4.42,21,4.62,42.11,4.62,63.48,0,9.65,15,9.67,15,0,0-21.42-.15-42.78-4.41-63.86-4-20-9.41-39.6-9.59-60.14-.09-9.65-15.09-9.67-15,0Z"/></g></g></svg>