<svg xmlns="http://www.w3.org/2000/svg" xmlns:xlink="http://www.w3.org/1999/xlink" viewBox="0 0 306 252"><defs><style>.cls-1{fill:none;}.cls-2{clip-path:url(#clip-path);}.cls-3{fill:#84a8b1;}.cls-4{fill:#293538;}.cls-5{fill:#bfe5ea;}</style><clipPath id="clip-path"><circle id="_Ellipse_" data-name="&lt;Ellipse&gt;" class="cls-1" cx="158.9" cy="127.35" r="108.33"/></clipPath></defs><title>pesticide design_v3.3_circular</title><g id="DICB"><g class="cls-2"><path class="cls-3" d="M219.23,236.37c17-6.85,32.25-17.76,42-35.15,6.64-11.88,9.86-25.44,13.11-39,3.8-15.89,1.09-33.34-1.41-49.36-2.35-15.07-6.29-29.21-10.79-43.56-1.23-3.91-2.16-7.83-4.48-11-12.21-16.85-33.4-23.71-49.95-32.78-16.36-8.95-36-9.52-53.75-7.64-9,1-17.78,2.92-26.78,3.54-6.38.43-12.47.74-18.77,2.14-4.22.94-9.27,1.79-12.28,5.68C84.82,32.92,72.74,37,65.68,48.64c-2.58,4.26-4.48,12-8,14.89-2.32,1.93-6,2.69-8.51,4.41C36.45,76.56,35.1,89.17,35.34,104.67c.2,12.77.59,25.9,3.88,38.2.78,2.95,1.67,5.68,2.3,8.66,1.71,8.17,4.36,16.28,9.42,22.41,2.94,3.54,5.58,7.37,8.45,11,7.44,9.46,16.89,15.59,25.25,23.59,2,1.9,3.06,3.94,4.64,6.42a70.26,70.26,0,0,0,14.23,16.11c17.92,14.95,42.75,17.59,64.17,16.06C184,245.94,202.45,243.14,219.23,236.37Z"/><path class="cls-4" d="M42.8,123.9c-2.06-6.72-.86-13.88-.43-20.77.49-8,.27-16,.4-24,.27-16.79-.16-33.56-.23-50.35C42.51,24,35,24,35,28.8c.07,17.45.48,34.87.19,52.31-.13,7.85.08,15.74-.47,23.57-.5,7.09-1.31,14.3.81,21.22,1.41,4.6,8.65,2.64,7.23-2Z"/><path class="cls-4" d="M56.65,111.07c-1.75-5.64.11-11.84.61-17.57.65-7.47,1.29-14.93,1.8-22.41,1-14.92,1.27-29.9,1.28-44.86,0-4.82-7.49-4.83-7.5,0,0,15.61-.28,31.24-1.41,46.81-.55,7.58-1,15.2-1.88,22.76-.64,5.81-1.92,11.52-.13,17.26,1.42,4.59,8.67,2.63,7.23-2Z"/><path class="cls-4" d="M73.27,92.89c1.3-5.28,1-10.61,1.2-16,.21-6.72.27-13.45.55-20.17.49-11.32,3.9-22.79,1.41-34-1-4.71-8.27-2.72-7.23,2,2.3,10.4-1.22,21.58-1.68,32.06-.25,5.82-.22,11.64-.43,17.46-.21,5.54.28,11.31-1,16.71-1.16,4.69,6.07,6.69,7.23,2Z"/><path class="cls-4" d="M91.08,82.25c4.09-18.4,1.28-37,1.71-55.65.12-4.83-7.38-4.83-7.5,0-.42,17.89,2.48,36-1.45,53.66-1,4.7,6.19,6.71,7.24,2Z"/><path class="cls-4" d="M103.87,78.32c-.22-7.11,2.51-14.32,3.32-21.39.94-8.26,1.76-16.53,2.22-24.83.27-4.82-7.23-4.8-7.5,0-.46,8.3-1.26,16.57-2.22,24.83-.83,7.14-3.54,14.15-3.32,21.39.15,4.81,7.65,4.83,7.5,0Z"/><path class="cls-4" d="M165.25,190c.33,7.45-.09,14.92.27,22.37.36,7.3,1.12,14.56,1.19,21.87,0,4.82,7.5,4.83,7.5,0v-1.91c0-4.82-7.5-4.83-7.5,0v1.91h7.5c-.07-7.32-.83-14.57-1.19-21.87-.36-7.45.06-14.92-.27-22.37-.21-4.81-7.71-4.83-7.5,0Z"/><path class="cls-4" d="M173.76,174.66c2.64,11.41,2.77,23.32,4.09,34.92.66,5.77,1.13,11.56,1.75,17.33.3,2.78.17,6.4,2.2,8.58,1.49,1.59,3.77,1.23,5.3,0l.21-.17c3.77-3-1.57-8.3-5.3-5.3l-.21.16h5.3c1.3,1.4.33.76.35-.24a16.13,16.13,0,0,0-.28-2.28c-.26-2.29-.48-4.59-.7-6.88-.55-5.69-1.21-11.36-1.78-17-1-10.37-1.34-20.88-3.7-31.07-1.09-4.7-8.32-2.71-7.23,2Z"/><path class="cls-4" d="M188.56,167c-1-1.09-.16-.08-.12.82s.2,1.91.3,2.86c.27,2.52.64,5,1,7.53.85,6.52,1.62,13.06,2.61,19.56.95,6.26,2.06,12.5,3.07,18.76.67,4.15.45,9.22,2,13.15,1.79,4.42,9,2.49,7.24-2-1.65-4.1-1.49-9.74-2.19-14.09-1.12-6.92-2.36-13.81-3.35-20.75s-2-14.14-2.8-21.22c-.36-3.26-.09-7.37-2.46-9.93-3.29-3.54-8.59,1.77-5.31,5.3Z"/><path class="cls-4" d="M200,134.23c3.34,6.69,2.33,14.85,3.26,22.1,1.24,9.57,2.09,19.19,3.24,28.77,1,8.27,2.21,16.58,2.6,24.9.22,4.57-.19,10.74,3.14,14.32s8.58-1.77,5.3-5.3c-1.16-1.25-.77-5.69-.86-7.31-.16-3.05-.35-6-.68-9.08-.95-8.95-2.1-17.88-3.05-26.83-.86-8.21-2.16-16.43-2.72-24.66-.48-7.14-.49-14.16-3.76-20.7-2.16-4.32-8.63-.52-6.47,3.79Z"/><path class="cls-4" d="M219.88,132c-.25,15.85,2.62,31.42,4.12,47.14,1.34,13.94.49,28.19,4.31,41.79,1.19,4.25,7,3.1,7.37-1a14,14,0,0,0,.08-1.94c0-4.83-7.49-4.83-7.5,0a14,14,0,0,1-.08,1.94l7.36-1c-3.8-13.53-2.8-27.81-4.22-41.68-1.56-15.08-4.18-30-3.94-45.26.08-4.83-7.42-4.83-7.5,0Z"/><path class="cls-4" d="M239,138.33c2.42,13.5,1.27,27.36,2.61,41,.62,6.25,1.14,12.52,1.46,18.79.22,4.54-1,9.57.67,13.91s8.95,2.53,7.23-2c-1.58-4.16-.29-10.29-.57-14.73-.4-6.59-1.09-13.15-1.66-19.74-1.14-13.08-.18-26.21-2.5-39.19-.85-4.75-8.08-2.74-7.24,2Z"/><path class="cls-4" d="M262.94,145c.18-1.29.35-2.57.5-3.86h-7.5c0,10.75.22,21.49,1,32.21.36,4.9.75,9.79,1,14.7.24,4.53-.18,9.2,1,13.61,1.27,4.65,8.51,2.68,7.24-2-1.15-4.21-.61-9.11-.86-13.46-.29-4.93-.71-9.84-1.05-14.76-.69-10.09-.85-20.2-.87-30.31,0-4.93-7-4.69-7.5,0l-.23,1.86c-.68,4.72,6.54,6.76,7.23,2Z"/><path class="cls-4" d="M274.88,133.67c.68,14.22-.15,28.47,1.09,42.66.42,4.77,7.92,4.82,7.5,0-1.24-14.19-.41-28.44-1.09-42.66-.24-4.81-7.74-4.84-7.5,0Z"/><path class="cls-4" d="M152.63,66.56c-1.32-6.52-1.89-13.3-.65-19.83,1.5-7.85,5.55-14.91,10.43-21A73.83,73.83,0,0,1,170,17.68c-4.63-1.42-9.56-.32-14.34.28-17.7,2.22-35.85-2.64-53.32,1.09-5.19,1.11-10.71,3.36-12.88,8.78,6.74-2.7,14.11-.49,19.63,4a39.68,39.68,0,0,1,10.21,13.7c2,4.08,3.56,8.65,3,13.21-.66,5.29-4.1,9.83-4.7,15.13-.84,7.44,4.35,14.45,10.65,17.65s13.51,3.45,20.48,3.64c1.89,0,8.24-1,9.52-2.45a6.21,6.21,0,0,0,1.13-2.44c2.07-7.66-4.82-14.78-6.52-22.55C152.8,67.34,152.71,67,152.63,66.56Z"/><path class="cls-4" d="M247.63,138.12c.86.09,1.72.15,2.59.16,5.56.11,11-1.53,16.16-3.65a27.51,27.51,0,0,0,8-4.58c6.71-6,7.33-16.43,4.91-25.08S272,88.54,269.23,80c-1.1-3.43-1.87-7-3.09-10.35C260.7,54.57,247,44.26,234.05,34.85a26.38,26.38,0,0,0-9.69,18.59c-.62,9,3.39,17.77,2.9,26.76-.36,6.8-3.27,13.2-6.57,19.17a140.36,140.36,0,0,1-16.2,23.37c9.37,4.59,19.23,8.09,29.07,11.58C238.15,136,242.82,137.59,247.63,138.12Z"/><path class="cls-4" d="M157,176.56c-6.23.59-12.64-1-18.78-2.52L117,168.68c-4.45-1.13-9.39-2.2-13.43,0-5.57,3-6.6,10.43-6.71,16.76-.29,16.35,1.25,33.48,11,47a44.39,44.39,0,0,0,34.47,5.58,16,16,0,0,0,5.92-2.6,18.29,18.29,0,0,0,3.86-4.66c10.22-15.85,17.21-35.26,12.48-53.51a2.68,2.68,0,0,0-.49-1.1c-.7-.81-2-.53-3-.25A24.07,24.07,0,0,1,157,176.56Z"/><path class="cls-5" d="M107,217.43c2.53,1,.67-.37,0-1.62-.38-.69-.72-1.4-1.09-2.09a44,44,0,0,1-3.23-6.62,73,73,0,0,1-3.13-14c-.83-5.81-2.32-15.87,2.7-20.32,5.37-4.76,16.86-1.89,23-.32,11,2.82,21.37,7,32.81,7.76,17.46,1.08,39-7,43.56-25.69,2.19-9.06-1.46-18.86,4.34-26.9,2.92-4.06,7-7.15,10.39-10.82a69.55,69.55,0,0,0,9.55-14.1c6.36-11.73,10.32-24.37,8.38-37.79-.91-6.3-4.17-12.9-4.08-19.24.06-4.68,4-9.9,8-12.17,8.39-4.77.84-17.73-7.57-13-10.16,5.77-16.72,17.86-15,29.41.87,5.82,3.08,11.35,3.94,17.18,1,6.52-.15,12.73-2.38,18.89a77.91,77.91,0,0,1-8.6,16.55c-3.24,4.82-7.94,8.29-11.75,12.61a36.61,36.61,0,0,0-8.17,14.17c-1.54,5.55-1,11.09-1.05,16.75,0,8.21-4.9,13.69-12.38,16.54-10.95,4.18-21.9,2.49-32.86-.71-17.1-5-46-14.49-55.61,7.44-4.27,9.72-2.91,20.83-1.11,31A62.61,62.61,0,0,0,92,219.72c2.84,5.2,5.2,9.87,11,12.18,3.79,1.51,8.2-1.65,9.22-5.24,1.22-4.25-1.49-7.74-5.24-9.23Z"/><path class="cls-5" d="M186.67,9.5C168.18,9.35,155.05,25.59,150,41.92c-2.5,8-3.33,17.08-.38,25.08,1.77,4.81,4.63,9.11,6.52,13.85.93,2.32,2.31,5.9.36,8-3.91,4.32-13.79,2.7-18.68,1.63C132,89.27,124.38,87.06,121,81.8c-4.17-6.51,4.41-14.48,6.29-20.81,3.2-10.69-3.59-21.08-11.13-28.16C99.65,17.34,74.41,16.19,54,23.77c-9,3.33-5.09,17.83,4,14.46,16.28-6,36.91-6.47,49.57,7.22,2.75,3,6.55,7.26,5.28,11.55-1.5,5.08-5.52,9.14-7,14.34a22.79,22.79,0,0,0,5.47,22.23c10.09,10.67,29,15,43.08,12.11,8.7-1.75,16.54-7.41,17.75-16.68,1.47-11.14-6.57-18.6-9-28.68-3.28-13.65,8.08-35.94,23.52-35.82,9.65.08,9.66-14.92,0-15Z"/><path class="cls-5" d="M203.5,133.67l-1.1,2.75,1-.57a19.31,19.31,0,0,0,1.9-.64,16,16,0,0,1,5.16-.16c5,.49,9.7,2.52,14.15,4.66,8.68,4.17,17.74,8.75,27.67,8,9.23-.69,18.51-4.74,25.85-10.28,3.87-2.94,7.52-6.32,11.15-9.55,3.46-3.09,5.48-7,8.35-10.57,2.55-3.18,3.05-7.49,0-10.6-2.6-2.66-8.08-3.15-10.61,0-3,3.76-5.27,7.91-8.95,11.07s-7.24,6.83-11.43,9.43c-9,5.59-18,7-27.76,2.74s-18.94-9.71-30-10c-8.64-.21-19.83,3.69-20.41,13.7-.56,9.64,14.44,9.61,15,0Z"/><path class="cls-5" d="M178.34,161.77c-12.86,5.42-20.76,18.93-20.71,32.82a27,27,0,0,0,.46,5c.26,1.36,1.47,3.26,1.42,4.59-.1,2.56-3.48,6.5-4.69,8.73-3.47,6.35-7.08,13.19-13.27,17.29-8,5.3-.51,18.3,7.57,12.95,6.27-4.14,10.92-9.66,14.85-16,3.69-6,9-13.54,10.22-20.47.68-3.76-.77-6.44-1.42-10a17.85,17.85,0,0,1,.62-7.65c1.24-4.68,4.14-10.76,8.94-12.78,3.71-1.56,6.43-5,5.24-9.22-1-3.51-5.46-6.83-9.23-5.24Z"/><path class="cls-5" d="M118.3,79c-16.07-14.81-40,.15-50.44,14.75-6.7,9.36-10.45,21.47-23.07,24.14a39.82,39.82,0,0,1-17-.49c-2.05-.48-4.1-1-6.13-1.57-1.16-.33-2.3-.83-3.46-1.13-1-.25-1.7-1.76-.35.15-5.52-7.83-18.53-.34-12.95,7.57,5.7,8.1,19.42,10.38,28.68,10.94,12.52.75,24.61-2.21,33.52-11.51,7.63-8,10.79-18.84,19.17-26,4.71-4.06,15.46-11.73,21.47-6.19,7.09,6.53,17.72-4,10.6-10.61Z"/></g></g></svg>