<svg xmlns="http://www.w3.org/2000/svg" xmlns:xlink="http://www.w3.org/1999/xlink" viewBox="0 0 306 252"><defs><style>.cls-1{fill:none;}.cls-2{clip-path:url(#clip-path);}.cls-3{fill:#84a8b1;}.cls-4{fill:#ceebee;}</style><clipPath id="clip-path"><circle id="_Ellipse_" data-name="&lt;Ellipse&gt;" class="cls-1" cx="159.33" cy="126.99" r="92.41"/></clipPath></defs><title>pesticide design_v3.3_circular</title><g id="FLUR"><g class="cls-2"><path class="cls-3" d="M252.88,135c2-19.29-1.08-33.79-10.37-51.69-4.15-8-10.77-13-16.52-19.57-6.53-7.48-12-14.8-20.92-19.95C181.22,30,151,29.45,125.27,37.11c-15.45,4.61-37.06,11.46-44.53,27.28C78,70.14,75.57,76.77,73.31,82.72c-5.5,14.49-6.4,30.73-15.14,43.77-4.07,21-3.53,42.74,15,57.22,20.11,15.67,42.55,31,68.76,34.15,14.22,1.68,31-2.28,45.28-4.44,9.49-1.44,20.95-2.2,29.05-7.69,7.9-5.35,13.11-13.93,18.43-21.61,4.42-6.36,10.12-11.92,13.1-19.19,3.64-8.85,3.68-18.55,4.82-27.89C252.73,136.35,252.81,135.66,252.88,135Z"/><path class="cls-4" d="M102.5,41c.07,15.42,1.84,30.72,3.44,46,1.62,15.49,2.38,31,2.74,46.53s.67,31.37,2.15,47c.66,7,.85,14.11,1.79,21.1.9,6.76.29,13.72,2.15,20.33,2.61,9.28,17.08,5.34,14.46-4-1.69-6-1.25-12.92-2-19.15-.8-7-1.08-14.17-1.7-21.23-1.34-15.31-1.56-30.67-1.92-46-.35-14.92-1.15-29.73-2.7-44.57-1.6-15.32-3.37-30.62-3.44-46,0-9.65-15-9.67-15,0Z"/><path class="cls-4" d="M148.5,26.5c2.06,16.32,1.32,32.75,2,49.14s2.94,33,5,49.41c2,16.23,3.79,32.41,5.35,48.7.82,8.51,2.29,16.9,3.31,25.38.9,7.46-.21,15,1.64,22.36,2.36,9.36,16.83,5.39,14.46-4-.86-3.41-.6-6.84-.6-10.34a86.21,86.21,0,0,0-1-12c-1.07-7.8-2.24-15.54-3-23.39-1.52-16.28-3.44-32.45-5.41-48.68-1.95-16.06-4.16-32.26-4.77-48.44s.06-32.17-2-48.17c-.51-4-3.08-7.5-7.5-7.5-3.66,0-8,3.45-7.5,7.5Z"/><path class="cls-4" d="M197.5,34.5C197.42,65.74,198.87,97,203,128c2,15.39,4.93,30.66,6.82,46.07,1.81,14.75-.47,29.85,2.49,44.42,1.92,9.46,16.38,5.46,14.46-4-1.38-6.8-.92-13.8-.79-20.69a149.38,149.38,0,0,0-1.4-21.65c-2-15.39-4.83-30.65-6.83-46-3.94-30.36-5.29-61-5.21-91.63,0-9.65-15-9.67-15,0Z"/><path class="cls-4" d="M60.5,68.5c.32,24.56,4.15,48.84,5.93,73.29.87,11.9.92,23.85,2,35.73,1,11.46,4.9,23,4.59,34.48-.26,9.66,14.74,9.65,15,0,.31-11.32-3.44-22.31-4.5-33.52-1.16-12.2-1.18-24.47-2.07-36.69-1.78-24.45-5.61-48.73-5.93-73.29-.12-9.64-15.12-9.67-15,0Z"/><path class="cls-4" d="M165,54.8c8.42-7.32,16.51-15,25.58-21.56,3.88-2.8.14-9.3-3.79-6.48-9.59,6.9-18.18,15-27.09,22.74C156,52.67,161.36,58,165,54.8Z"/><path class="cls-4" d="M164.56,73.33C177.8,63.18,190.25,52,204.23,42.78c4-2.63.26-9.13-3.79-6.47-14,9.17-26.42,20.39-39.67,30.55-3.77,2.89,0,9.41,3.79,6.47Z"/><path class="cls-4" d="M164.89,90.14c14.11-9.85,28.64-19.08,42.67-29,3.91-2.77.16-9.27-3.79-6.47-14,10-28.56,19.17-42.66,29-3.93,2.74-.19,9.25,3.78,6.48Z"/><path class="cls-4" d="M166.23,116.48c7.45-5.18,15-10.21,22.35-15.59,6.28-4.6,13.36-9.15,18.74-14.78,3.33-3.49-2-8.8-5.3-5.3-5.3,5.55-12.5,10.18-18.7,14.68-6.86,5-13.92,9.68-20.88,14.52-3.93,2.73-.19,9.24,3.79,6.47Z"/><path class="cls-4" d="M167.23,141.3c12.29-9.36,24.87-18.35,37.33-27.49,3.85-2.82.11-9.34-3.79-6.48-12.46,9.15-25,18.14-37.33,27.5-3.79,2.88-.06,9.4,3.79,6.47Z"/><path class="cls-4" d="M169.56,161.92c7-5.15,14.14-10.06,21.31-15,3.25-2.22,6.62-4.36,9.72-6.81s5.89-5.45,9.3-7.62c4.07-2.58.31-9.07-3.78-6.47a70.43,70.43,0,0,0-8.33,6.68,113.32,113.32,0,0,1-10.7,7.75c-7.16,4.9-14.32,9.81-21.31,15-3.84,2.84-.1,9.35,3.79,6.47Z"/><path class="cls-4" d="M171.56,176.82c7.4-5.5,15.15-10.5,22.62-15.9,6.28-4.52,11.94-10.54,18.71-14.27,4.23-2.33.45-8.81-3.78-6.48-6.84,3.77-12.4,9.73-18.71,14.28-7.48,5.39-15.23,10.39-22.63,15.89-3.83,2.85-.09,9.36,3.79,6.48Z"/><path class="cls-4" d="M175.65,196.47c6.61-5.6,13.68-10.58,20.74-15.58,5.86-4.16,11.5-10,17.84-13.24,4.29-2.21.5-8.69-3.79-6.47-3.42,1.76-6.12,4.35-9.07,6.78-3.26,2.68-6.78,5-10.23,7.48-7.09,5-14.15,10.1-20.79,15.73-3.69,3.12,1.64,8.41,5.3,5.3Z"/><path class="cls-4" d="M175.65,223.2c7.12-5.61,14.42-11,21.62-16.48,6.65-5.08,12.93-10.86,20-15.39,4-2.61.28-9.11-3.79-6.48-7.57,4.89-14.33,11.12-21.5,16.56s-14.48,10.88-21.59,16.49c-3.79,3,1.55,8.26,5.3,5.3Z"/><path class="cls-4" d="M208,49.57c14.34,5.2,27.73,12.52,40.77,20.35,4.15,2.5,7.93-4,3.79-6.47C239,55.27,225,47.76,210,42.34c-4.55-1.65-6.51,5.6-2,7.23Z"/><path class="cls-4" d="M207.34,69.52c17.19,5.83,34.27,12,50.77,19.57,4.35,2,8.17-4.45,3.78-6.48-17.08-7.88-34.75-14.29-52.56-20.32-4.58-1.56-6.55,5.69-2,7.23Z"/><path class="cls-4" d="M206.67,89.86c18.31,5,37,9.2,54.1,17.61,4.32,2.12,8.13-4.34,3.79-6.47-17.74-8.71-36.94-13.21-55.9-18.37-4.66-1.27-6.65,6-2,7.23Z"/><path class="cls-4" d="M211.34,109a471.88,471.88,0,0,1,49.43,20c4.34,2.06,8.15-4.4,3.79-6.48a489.4,489.4,0,0,0-51.23-20.72c-4.57-1.58-6.54,5.67-2,7.23Z"/><path class="cls-4" d="M212,129.75c8.41,3.17,16.71,6.59,25.05,9.95,7.46,3,14.93,6.91,22.62,9.22,4.63,1.39,6.61-5.84,2-7.23-7.64-2.3-15.2-6.23-22.62-9.22-8.33-3.36-16.63-6.79-25-10-4.53-1.7-6.48,5.55-2,7.23Z"/><path class="cls-4" d="M214.34,149.7c8.87,3.05,17.67,6.33,26.42,9.71,6.32,2.44,12.74,7.58,19.57,8,4.82.31,4.8-7.19,0-7.5-3.29-.22-6.32-2.8-9.18-4.28A101.93,101.93,0,0,0,241,151.5c-8.17-3.14-16.38-6.19-24.67-9-4.57-1.57-6.54,5.67-2,7.23Z"/><path class="cls-4" d="M217.67,172a177.59,177.59,0,0,1,18.93,8c5.21,2.46,12.24,4.28,16.75,7.86,3.74,3,9.08-2.3,5.3-5.3-5.28-4.2-12.2-6.18-18.27-9a192.12,192.12,0,0,0-20.72-8.75c-4.58-1.54-6.55,5.7-2,7.23Z"/><path class="cls-4" d="M219.34,189.6c8.07,2.43,15.93,6.53,23.52,10.21,3.91,1.9,8.61,5.47,13,3.1,4.26-2.27.48-8.75-3.78-6.48,1.27-.68,0-.21-.85-.72s-2-1-2.92-1.47C246,193,243.67,192,241.28,191c-6.62-3-13-6.49-19.95-8.59-4.63-1.4-6.61,5.84-2,7.23Z"/><path class="cls-4" d="M78.24,93.51c11-15.68,24-30,33-47,2.26-4.26-4.21-8.05-6.48-3.79-9.05,17-22,31.35-33,47-2.78,4,3.72,7.71,6.48,3.78Z"/><path class="cls-4" d="M78.57,118.19c6.26-8.15,13-15.92,19.29-24,5.39-6.94,11.76-13.9,16-21.59,2.36-4.22-4.12-8-6.47-3.78-4.45,8-11.21,15.46-16.87,22.62-6.1,7.72-12.47,15.21-18.46,23-2.94,3.82,3.57,7.56,6.47,3.78Z"/><path class="cls-4" d="M79.57,147.52c9.87-16,24.58-28.16,35-43.76,2.69-4-3.8-7.79-6.47-3.79-10.42,15.61-25.12,27.75-35,43.77-2.55,4.12,3.94,7.89,6.47,3.78Z"/><path class="cls-4" d="M79.65,173c12.07-13,25.87-24.39,34.92-39.87,2.44-4.18-4-8-6.47-3.79C99.38,144.21,86,155.16,74.35,167.65c-3.29,3.54,2,8.85,5.3,5.31Z"/><path class="cls-4" d="M82.32,197.17c10.82-12.12,21.78-24.1,31.58-37.08,2.92-3.85-3.59-7.59-6.47-3.78C98,168.77,87.4,180.23,77,191.87c-3.21,3.59,2.08,8.91,5.3,5.3Z"/><path class="cls-4" d="M82.65,220.91c6.08-6.84,12.1-13.75,17.82-20.9,5.55-6.93,10.61-14.19,16.85-20.53,3.39-3.45-1.91-8.75-5.3-5.31-6.25,6.36-11.3,13.6-16.86,20.54-5.72,7.15-11.73,14-17.81,20.9-3.2,3.6,2.09,8.92,5.3,5.3Z"/><path class="cls-4" d="M117.17,35.24c12.87,4.83,25.71,9.78,39,13.37,2.33.63,3.33-3,1-3.62-13.29-3.58-26.13-8.54-39-13.36-2.27-.85-3.24,2.77-1,3.61Z"/><path class="cls-4" d="M113.67,53.22c7.54.86,14.69,3.63,21.86,6,6.57,2.15,13.29,3.77,19.81,6.1,4.55,1.63,6.51-5.62,2-7.23-7.08-2.54-14.41-4.3-21.54-6.68-7.3-2.44-14.45-4.8-22.12-5.68-4.79-.54-4.75,7,0,7.5Z"/><path class="cls-4" d="M114,71c13.72,4.91,27.84,8.62,41.34,14.13,4.46,1.82,6.41-5.43,2-7.24-13.5-5.5-27.62-9.22-41.33-14.12-4.56-1.63-6.52,5.61-2,7.23Z"/><path class="cls-4" d="M115.34,92c13.34,3.4,27.24,5.48,39.77,11.46,4.33,2.07,8.14-4.39,3.78-6.48-13.17-6.29-27.52-8.63-41.56-12.21-4.68-1.19-6.68,6-2,7.23Z"/><path class="cls-4" d="M116.34,117.63c14.38,3.05,27.89,9,42,13,4.65,1.32,6.63-5.92,2-7.23-14.11-4-27.62-9.94-42-13-4.71-1-6.72,6.23-2,7.24Z"/><path class="cls-4" d="M120.33,135.71a126.92,126.92,0,0,1,22.91,4.7c3.23,1,6.37,2.21,9.59,3.21,2.88.9,5.88,1.51,8.19,3.59,3.57,3.23,8.89-2.06,5.3-5.3-5.07-4.58-12.92-6.12-19.29-8.17a135.78,135.78,0,0,0-26.7-5.53c-4.79-.54-4.75,7,0,7.5Z"/><path class="cls-4" d="M120,158.62c15.45,1.44,29.21,9.58,44,13.61,4.67,1.27,6.66-6,2-7.23-15.55-4.23-29.74-12.36-46-13.88-4.8-.45-4.77,7,0,7.5Z"/><path class="cls-4" d="M117.67,172.61c15.74,4.78,30.54,12,46,17.57,4.55,1.63,6.51-5.61,2-7.23-15.45-5.55-30.26-12.8-46-17.57-4.63-1.4-6.6,5.83-2,7.23Z"/><path class="cls-4" d="M118.34,192.85c15.82,5.51,32.68,7.8,48.1,14.52,4.38,1.9,8.21-4.56,3.79-6.48-16.06-7-33.43-9.54-49.9-15.27-4.57-1.59-6.53,5.65-2,7.23Z"/><path class="cls-4" d="M119,208.89c8,2.76,16.08,5.5,24.24,7.88,3.91,1.14,7.85,2.2,11.81,3.14s8.36,1.14,12.06,2.73c4.38,1.89,8.21-4.57,3.78-6.48-7.38-3.18-16.09-3.9-23.84-6.1-8.78-2.5-17.42-5.43-26.05-8.4-4.58-1.58-6.54,5.67-2,7.23Z"/><path class="cls-4" d="M48.35,130.75C55.48,136.39,63.94,141,68.76,149c2.5,4.12,9,.36,6.48-3.79C70,136.52,61.4,131.57,53.65,125.45c-3.75-3-9.09,2.31-5.3,5.3Z"/><path class="cls-4" d="M44.11,151.23C52.8,157.29,62,162.63,70,169.62c3.62,3.16,8.94-2.12,5.3-5.3-8.5-7.42-18.2-13.14-27.43-19.57-4-2.77-7.72,3.73-3.78,6.48Z"/></g></g></svg>