<svg xmlns="http://www.w3.org/2000/svg" xmlns:xlink="http://www.w3.org/1999/xlink" viewBox="0 0 306 252"><defs><style>.cls-1{fill:none;}.cls-2{clip-path:url(#clip-path);}.cls-3{fill:#bfe5ea;}.cls-4{fill:#293538;}.cls-5{fill:#84a8b1;}</style><clipPath id="clip-path"><circle id="_Ellipse_" data-name="&lt;Ellipse&gt;" class="cls-1" cx="156" cy="128.19" r="97.23"/></clipPath></defs><title>pesticide design_v3.3_circular</title><g id="MCPA"><g class="cls-2"><path class="cls-3" d="M212.4,236.67c39.25-14.76,60.49-68.39,54.94-114.95-5-42.32-29.2-92.31-68.75-97.7-14.05-1.92-27.71-3.22-41.68-6.12-8.61-1.8-16.59-5.7-25.39-6.75-10-1.19-14.25-1.37-21.9,5-55.3,11.25-77.57,102.21-58,154.4C55.9,181.92,63.77,197,72.5,204.06c16,13,37.06,26.62,59.69,33.53,19.3,5.89,47.62,4.94,66.54,2.48A61.22,61.22,0,0,0,212.4,236.67Z"/><path class="cls-4" d="M113.27,195.56A262.56,262.56,0,0,1,138,225.09c5.74,7.86,10.43,17.49,18.67,23,4,2.71,7.77-3.79,3.79-6.47-4.21-2.84-7-7.3-9.76-11.46-3-4.52-6.19-8.91-9.45-13.25a260.35,260.35,0,0,0-22.7-26.71c-3.4-3.44-8.7,1.87-5.3,5.31Z"/><path class="cls-4" d="M120.6,180.89c15.71,14.42,24.63,34.31,38,50.67,3.05,3.74,8.33-1.6,5.3-5.31-13.39-16.38-22.24-36.2-38-50.66-3.55-3.26-8.87,2-5.3,5.3Z"/><path class="cls-4" d="M134.49,154.35c-.25-.55-.34-.61-.28-.19l-5.5,4.24c1.44,1,3,4.93,4.1,6.45,1.68,2.44,3.4,4.84,5.09,7.27a114.47,114.47,0,0,1,9.73,15.9c2.91,6.17,4.18,15.07,11.29,17.83,4.5,1.75,6.45-5.5,2-7.23-2.47-1-3.87-7.24-4.73-9.47a73.44,73.44,0,0,0-6-11.94c-2.76-4.55-5.86-8.88-8.91-13.23-2.65-3.78-5.06-9.4-8.83-12.06-2.8-2-6.25,1.28-5.51,4.24a6.86,6.86,0,0,0,1,2c2.6,4.05,9.09.29,6.48-3.78Z"/><path class="cls-4" d="M136.68,133.46c6.47,15.18,15,29.56,24,43.34,2.64,4,9.13.26,6.47-3.79-9-13.78-17.52-28.15-24-43.33-1.88-4.43-8.34-.61-6.47,3.78Z"/><path class="cls-4" d="M150.08,118.92c.34,7.43,3.85,13.75,7,20.34,3.57,7.55,5.83,15.91,7.84,24,1.17,4.68,8.4,2.7,7.24-2a160,160,0,0,0-6.84-21.82c-2.74-6.69-7.36-13.1-7.7-20.51-.22-4.81-7.72-4.84-7.5,0Z"/><path class="cls-4" d="M160.88,107.91c2.46,11.15,9,20.81,11.34,32,1,4.73,8.2,2.73,7.23-2-2.3-11.19-8.88-20.86-11.33-32-1-4.71-8.27-2.72-7.24,2Z"/><path class="cls-4" d="M227.06,154.15c11.28-6.51,20.57-16.2,32.67-21.33,4.43-1.88.61-8.34-3.79-6.47-12.09,5.12-21.39,14.81-32.67,21.33-4.17,2.41-.4,8.9,3.79,6.47Z"/><path class="cls-4" d="M228.39,136.49c17.09-8.73,28.92-23.8,42.76-36.59,3.56-3.28-1.76-8.57-5.3-5.3-13.38,12.35-24.74,27-41.24,35.41-4.3,2.2-.51,8.67,3.78,6.48Z"/><path class="cls-4" d="M229.15,120.57c15.73-14.68,35.07-27.44,44.59-47.43,2.06-4.33-4.4-8.14-6.48-3.78-9.21,19.36-28.17,31.68-43.41,45.91-3.54,3.3,1.77,8.59,5.3,5.3Z"/><path class="cls-4" d="M222.39,102.49c19.17-12.37,37.32-29.41,48.68-49.35,2.4-4.2-4.08-8-6.47-3.78-10.72,18.8-27.91,35-46,46.65-4.05,2.61-.29,9.1,3.78,6.48Z"/><path class="cls-4" d="M217.48,87.9c16.15-16.61,36.14-29.84,47.26-50.76,2.26-4.26-4.21-8-6.48-3.78-10.78,20.28-30.41,33.12-46.08,49.24-3.36,3.46,1.93,8.77,5.3,5.3Z"/><path class="cls-4" d="M212.07,75.81c3.62-8.36,13.05-13.24,18.91-20,7.66-8.78,14.65-18.14,21.76-27.37,2.94-3.83-3.57-7.57-6.48-3.79-7.37,9.58-14.49,19.59-22.83,28.37-5.93,6.25-14.28,10.76-17.83,19-1.9,4.39,4.56,8.21,6.47,3.79Z"/><path class="cls-4" d="M207.48,59.57c9.91-9.31,17.85-20.38,26.67-30.67,3.13-3.65-2.15-9-5.3-5.3C220,33.89,212.09,45,202.18,54.27c-3.52,3.31,1.79,8.6,5.3,5.3Z"/><path class="cls-4" d="M108.72,24.08c5.09,14,10.52,28,14.52,42.37,1.12,4,7.43,3.29,7.37-1l0-1.87c-.06-4.82-7.56-4.83-7.5,0l0,1.87,7.37-1c-4-14.4-9.44-28.32-14.53-42.36-1.63-4.51-8.88-2.56-7.23,2Z"/><path class="cls-4" d="M92.6,33.48c10.27,14.46,11.68,33.28,19.5,49,2.14,4.32,8.62.52,6.47-3.79-7.83-15.75-9.16-34.45-19.5-49-2.77-3.9-9.28-.16-6.47,3.79Z"/><path class="cls-4" d="M74.72,34.08c2.48,13,9.48,24.39,13.74,36.81,2.78,8.11,3.22,18.78,9.22,25.34,3.26,3.58,8.56-1.74,5.3-5.3-2.58-2.83-3.35-7.71-4.29-11.3a136.46,136.46,0,0,0-4.19-14C90.21,54.47,84.21,43.93,82,32.09c-.9-4.74-8.13-2.73-7.23,2Z"/><path class="cls-4" d="M59.6,57c8.84,16.67,17.71,33.47,23.63,51.45,1.25,3.8,7.71,3.43,7.36-1a9,9,0,0,0-1-3.74c-2.16-4.31-8.64-.52-6.47,3.79v0l7.37-1c-6.12-18.59-15.24-36-24.39-53.24-2.26-4.26-8.74-.48-6.47,3.79Z"/><path class="cls-4" d="M47.72,69.08c7.63,19.21,17.74,37.29,26.91,55.78,1.58,3.2,7.44,1.82,7-1.89a16.19,16.19,0,0,0-.67-3.38c-1.5-4.57-8.74-2.62-7.23,2l.4,1.39,7-1.89c-8.88-17.9-18.77-35.4-26.16-54-1.76-4.44-9-2.5-7.23,2Z"/><path class="cls-4" d="M36.18,92.73c12.58,14,19.59,31.67,26.54,48.85,1.78,4.42,9,2.49,7.23-2C62.5,121.15,55,102.4,41.48,87.43c-3.23-3.59-8.53,1.73-5.3,5.3Z"/><path class="cls-4" d="M29.72,112.08c1.09,4,3.51,7,5.79,10.43,2.76,4.09,5.23,8.41,7.81,12.63,5.33,8.73,10.9,17.33,15.78,26.34,2.29,4.24,8.77.46,6.47-3.79C61,149.25,55.79,141.17,50.79,133c-2.33-3.8-4.62-7.62-7-11.4s-5.68-7.22-6.85-11.49c-1.27-4.65-8.51-2.68-7.23,2Z"/><path class="cls-5" d="M212.29,244.44c1.56,1.1,1.56,2.43,1.59.84a21,21,0,0,0-.87-3.79,61.39,61.39,0,0,1-.89-6.33c-.58-6.81,1-12.95,3.51-19.25,5.28-13.51,11.58-27.12,20.84-38.39,18.59-22.64,36.19-45.62,40.4-75.47,2.42-17.11.66-33.67-7.89-48.92-4.73-8.42-17.69-.86-13,7.57,15.07,26.86,4,59.57-12.2,83.16-8.31,12.12-18.84,22.6-26.73,35A149.63,149.63,0,0,0,206.62,199c-3.09,7-6.51,14.19-8.3,21.68-1.72,7.17-1.43,14.07-.36,21.28.84,5.65,1.78,11.94,6.75,15.45,7.91,5.58,15.41-7.42,7.58-12.95Z"/><path class="cls-5" d="M192.33,25.58c-.16,14.39-2.55,28.66-.39,43,1.91,12.74,8.17,24.31,14.46,35.36A106.07,106.07,0,0,1,219,138.44c2.1,12.13,2.52,25.8-.35,37.82-2.24,9.38,12.22,13.38,14.47,4,6-25,1.4-53.33-9.68-76.27-5.63-11.67-13.24-22.17-16.17-35-3.22-14.13-.05-29.09.11-43.39.11-9.65-14.89-9.66-15,0Z"/><path class="cls-5" d="M183,243.13a69.13,69.13,0,0,1-12.73-39.06c-.14-14.35,4.29-27.07,9.88-40.07,6-14,9.83-28.49,9.52-43.83-.31-14.93-4.16-29.53-8.82-43.62-3.31-10-10.73-27.27-3-37,2.54-3.2,3.07-7.47,0-10.6-2.58-2.64-8.09-3.17-10.6,0-8.92,11.25-8.29,25-4.9,38.26,3.69,14.42,9.55,28.1,11.59,43,2.19,16-.52,31.63-6.76,46.4s-11.57,28.87-11.87,45.14a83.41,83.41,0,0,0,14.76,49c5.47,7.88,18.47.39,13-7.57Z"/><path class="cls-5" d="M122.4,229.59c-9.53-30.82-1.16-62.38,18.39-87.29,9.26-11.79,19.69-22.88,26.85-36.16,3.77-7,6.76-14.39,7.57-22.36.84-8.28-.62-16.57.12-24.86.87-9.62-14.14-9.56-15,0-.74,8.25,1,16.66-.12,24.86-1.1,7.69-5.31,15-9.47,21.41-8.13,12.53-18.67,23.27-27.32,35.44-18.93,26.64-25.18,61.59-15.49,93,2.85,9.19,17.33,5.27,14.47-4Z"/><path class="cls-5" d="M69.07,183.58c6-27.41,15.52-54.73,33.58-76.65,8.78-10.65,19.18-19.9,27-31.38a57.29,57.29,0,0,0,8.73-20.65c1.48-7.18,2.26-14.37,4.72-21.32,3.22-9.12-11.27-13-14.47-4-2.46,7-3.22,14.15-4.72,21.32A48.06,48.06,0,0,1,115.24,70c-8.24,11.36-19,20.64-27.52,31.83C70.44,124.6,60.63,151.88,54.6,179.59,52.55,189,67,193,69.07,183.58Z"/></g></g></svg>