<svg xmlns="http://www.w3.org/2000/svg" xmlns:xlink="http://www.w3.org/1999/xlink" viewBox="0 0 306 252"><defs><style>.cls-1{fill:none;}.cls-2{clip-path:url(#clip-path);}.cls-3{fill:#293538;}.cls-4{fill:#84a8b1;}</style><clipPath id="clip-path"><circle id="_Ellipse_" data-name="&lt;Ellipse&gt;" class="cls-1" cx="153.49" cy="135.33" r="90.09"/></clipPath></defs><title>pesticide design_v3.3_circular</title><g id="MCPP"><g class="cls-2"><path class="cls-3" d="M184.27,225.85c27.57-7,50-26.34,55.76-58.5,3.78-21.36,8.95-42.32,11.19-64s-13.87-39.23-32.86-48.75C191.11,41,142.6,31.81,113.82,46,93.17,48,77.9,65.43,65.06,79.32c-13.56,14.66-36,43-26.91,63.78,7.18,16.49,21.2,43.58,33.63,56.17C91,218.76,118,224.15,144.16,227.8A104.65,104.65,0,0,0,184.27,225.85Z"/><path class="cls-4" d="M154,101.69c-9.07,0-19.59-.89-28.34,1.94-7.27,2.34-11.72,7.79-14.14,14.86-2.5,7.3-4.36,16.56-1.79,24C113,152,122.87,154.81,131.84,156c11.32,1.47,22.91,2.11,34.31,2.78,5.28.31,10.56.24,15.83.52,4.48.23,8.94.87,13.32-.49,16.06-5,14.69-31.74,6.19-42.53-10.61-13.45-31.64-15.47-47.49-14.56-8,.46-8.05,13,0,12.5,10.64-.61,22.8,0,32.29,5.35,4.23,2.41,7.15,5.72,8.07,10.58.79,4.13,1.58,11.95-1.23,15.54-1.7,2.17-5.16,1.53-7.57,1.37-3.87-.26-7.71-.32-11.58-.43-9.14-.26-18.25-1.11-27.36-1.85-6.94-.56-15.18-.17-21.68-3.08-5.61-2.5-4-9.48-2.86-14.34,1.17-5.17,2.35-10.36,7.94-12,7.38-2.11,16.37-1.22,24-1.19,8,0,8.05-12.46,0-12.5Z"/><path class="cls-4" d="M93.42,104.92c7.43-9,15.89-24.25,10-36-3.57-7.06-11.71-9.4-19-10.38a140.55,140.55,0,0,1-14.14-2.26c-5-1.21-10-2.27-15.24-2.07-8,.31-8.06,12.82,0,12.5,7.23-.28,14,2.52,21.16,3.4,4.12.51,13.44.14,16,4.27,3.57,5.78-4.06,17.39-7.58,21.66-5.08,6.16,3.71,15,8.84,8.84Z"/><path class="cls-4" d="M102.75,100.5a27.57,27.57,0,0,1,3.64-16.09c3.75-6.07,8.76-6.15,15.44-5.62,8.63.69,17,3.2,25.45,5.07,5.16,1.15,12.2,1.16,13.1,7.58.79,5.6-.67,8.55-6.1,9.42-5.69.91-11.76.11-17.47-.31a99.19,99.19,0,0,0-17.39.65c-5.71.55-13.71,1.88-18.5-2.12-6.13-5.13-15,3.67-8.84,8.84,11.92,10,26.32,4.48,40.23,4.86,11.12.3,26.28,4,35.41-4.51,10.22-9.51,5.57-28.95-6.82-33.83-7.38-2.91-15.93-4-23.67-5.72C129,66.94,120,65.15,111.52,66.51c-15.15,2.43-22.09,20.29-21.27,34,.48,8,13,8,12.5,0Z"/><path class="cls-4" d="M33.66,146c5.88-2,12.73-1.61,18.73-.45,4.76.91,12.73,2.54,14.65,7.69a15.82,15.82,0,0,1-.24,10.15c-1.32,3.08-5,2.34-8,2.16C48.26,164.92,37.55,163,27.16,161c-7.86-1.53-11.22,10.51-3.32,12.06s16.13,2.73,24.27,3.75c5.75.72,11.51,1.87,17.32,1.11,12.75-1.65,16.15-14.71,14.12-25.87-1.81-9.92-10.86-15.09-19.88-17.58s-20.23-3.53-29.33-.47C22.75,136.53,26,148.6,33.66,146Z"/><path class="cls-4" d="M111.58,145.52a217.65,217.65,0,0,0-25.28-.76C79.58,145,73,147,69.84,153.47a26.72,26.72,0,0,0-1.15,19.21c2.26,6.73,8.34,10,15,11.37,8,1.6,16.06,2.88,24.09,4.1,8.32,1.27,16.65,3.07,25.08,3.55,5.65.31,11.56-.88,15.59-5.13,4.29-4.54,5.33-11.58,5.63-17.57.45-9-4.85-13.85-12.72-16.93-9.49-3.71-19.65-5.56-29.75-6.55-8-.78-8,11.72,0,12.5a103.81,103.81,0,0,1,23.94,5.2c2,.7,5.22,1.23,6,3.46.73,2-.36,6.37-.89,8.26-1.18,4.21-3.74,4.49-7.84,4.26-7.31-.41-14.45-2-21.64-3.19s-14.37-2.43-21.57-3.57c-5.37-.84-9.5-1.25-9.62-7.41,0-1.79,0-5.27,1.42-6.69s4.44-1.08,6.21-1.09c8-.05,16,.11,24,.77S119.55,146.19,111.58,145.52Z"/><path class="cls-4" d="M52.5,180.75c13.34,0,26,5.28,38.91,7.72a31.82,31.82,0,0,0,3.78.8c1.46.11.77.79.35-.21a15.25,15.25,0,0,1,.48,3.56c.27,4.36-.8,8.1-1.49,12.3-.21,1.29.08.41-.38.39a28.43,28.43,0,0,1-6.38-1.1c-4-1.1-7.73-2.49-11.78-3.15-4.65-.76-9.31-1.39-13.9-2.44-2.59-.6-8.49-1.45-10.19-3.77-4.72-6.42-15.57-.19-10.8,6.3,7.41,10.08,22.16,10.08,33.34,12.26,10.06,2,25.62,10.16,31.4-3.25,3.58-8.31,5.86-26.28-3.72-31.56-3-1.66-6.56-1.94-9.87-2.63-4.11-.86-8.11-2.25-12.2-3.23-9-2.14-18.25-4.47-27.55-4.49-8,0-8.06,12.49,0,12.5Z"/><path class="cls-4" d="M71.84,62.53C89,67.14,105.79,73,123.36,76c6.52,1.11,13.29,2.72,19.39-.81,6.69-3.86,10.44-11.56,12.95-18.53,2.14-5.94,3.45-13-.82-18.31-3.61-4.49-9.59-6.4-15-7.82-6.9-1.82-13.77-3.82-20.73-5.36A103.94,103.94,0,0,0,106.54,23c-5-.47-10-.12-14.88-1.07C83.8,20.45,80.44,32.5,88.34,34c7,1.35,14.11.79,21.11,1.95A208.82,208.82,0,0,1,130.37,41c3.9,1.06,8.06,1.7,11.79,3.31,1.79.77,2.91,1.4,3.08,2.69.25,1.91-1,4.6-1.59,6.33C142.07,57.74,139.31,64.57,134,65c-5.72.43-12.62-1.85-18.15-3.1-13.74-3.12-27.09-7.74-40.69-11.4-7.78-2.09-11.09,10-3.32,12.06Z"/><path class="cls-4" d="M178.91,183.28q-7-1.18-14-2c-3-.34-7.83.1-10.61-1.4-1.58-.86-1.27-.36-1.18-2.5a72.35,72.35,0,0,1,1.75-11.69c.42-2,.57-4.32,2.27-5.49s4.67-.79,6.41-.77c5.83.1,11.55,1.3,17.33,2,2.44.28,4.95,0,7.36.32,3.64.47,7,2.59,10.57,3.38,4,.87,10.18-.79,10.54,4.47.3,4.38-1.17,9.07-3,13-.78,1.64-2.14,5.1-4.13,5.8-2.42.86-7-1.4-9.27-2-4.62-1.23-9.28-2.23-14-3.08-7.86-1.41-11.24,10.63-3.32,12.06,4.7.84,9.37,1.84,14,3.08,3.77,1,7.64,2.41,11.6,2.47,8.15.14,13.11-6,16.29-12.81,3.37-7.21,6-16.45,3.49-24.35-2.13-6.79-8.33-9.57-14.91-10.28a44.55,44.55,0,0,1-10.59-2.59c-3.73-1.33-7.18-1.51-11.08-1.62-5.83-.17-11.6-1.63-17.42-2.09s-12.32-.31-17.32,3.06c-6.43,4.35-7.14,13-8.08,20.07-1.05,7.83-2.12,16.1,6.1,20.4,3.24,1.69,7,2.09,10.55,2.47,5.82.63,11.6,1.21,17.38,2.19C183.46,196.67,186.84,184.62,178.91,183.28Z"/><path class="cls-4" d="M140.29,197.47c7,.69,14,2.25,21,2.3,3.95,0-2.65-.19-3-2.64.18,1.14,1.73,2.12,2.37,3.07,2.7,4,1.93,9.85.71,14.44-.76,2.86-1.19,3.07-4.15,3.07A85.77,85.77,0,0,1,146.3,217c-4.13-.53-8.12-1.52-12.16-2.45s-8-.71-12.07-1.26c-2.85-.38-9.44-.72-11.63-2.79-1-.91-.91-2.22-.88-3.58.1-3.53,1.78-10.28,5.4-11.94,3.43-1.58,8.86.13,12.33.76,4.31.79,8.64,1.33,13,1.76,8,.81,7.94-11.7,0-12.5-9-.9-18.92-4.53-27.93-2.2-6.69,1.73-10.64,7.41-13,13.54C97.05,202.05,96,209,98.5,214.85c3.15,7.29,11.54,9,18.66,10.22,4.17.69,8.38.75,12.55,1.31,4.48.59,8.87,2,13.37,2.67,6.85,1,16,2.76,22.52-.43,6.75-3.3,8.16-10.89,8.89-17.68.76-6.94.2-13.79-4.64-19.14-.25-.28-.51-.54-.75-.82-1-1.15.76,1,.14.17a14.93,14.93,0,0,0-1.35-1.81,7.56,7.56,0,0,0-5.2-2.05c-7.5-.57-14.92-1.58-22.4-2.32C132.29,184.18,132.34,196.69,140.29,197.47Z"/><path class="cls-4" d="M270.42,167.08c-9.37-8.11-23.85-9.93-35.83-11.25-5.36-.59-10.79-.36-15.32,2.86s-7.52,8.37-9.79,13.29c-4.22,9.16-9,21.61,1.21,28.67,5,3.44,11.34,4.1,17.18,5a223.2,223.2,0,0,0,22.63,2.58c8,.44,8-12.06,0-12.5-9.66-.52-20.48-1.18-29.76-4.11-3-.95-4.27-1.58-3.51-4.86a47.2,47.2,0,0,1,3.61-9.68c1.3-2.65,2.88-6.31,5.38-8.06s6.65-1,9.65-.53c4.1.62,8.17,1.56,12.25,2.35,4.7.92,9.73,1.83,13.46,5.06,6.05,5.24,14.93-3.56,8.84-8.84Z"/><path class="cls-4" d="M239.66,201.47c-16-4.91-32-9.74-48.32-13.76-9.73-2.4-20.31-4-24.54,7.49-3.29,8.94-6.62,22.76-.86,31.26,3.68,5.43,10.54,7.78,16.56,9.55,6.86,2,14,3.06,20.84,5,7.75,2.2,11.06-9.86,3.32-12.06-5.29-1.5-10.69-2.49-16-3.76-4-1-11.39-2-14.16-5.45-1.87-2.32-1-6.36-.56-9,.37-2.06.89-4.09,1.35-6.13.35-1.51.45-4.71,1.52-5.84s2.94-.55,4.66-.16c5.11,1.15,10.21,2.46,15.27,3.8,12.65,3.34,25.13,7.27,37.63,11.1,7.71,2.36,11-9.7,3.32-12.06Z"/><path class="cls-4" d="M153.9,68.35c-2-3.55-.14-9.07,1.43-12.46,1.91-4.15,4-6.93,8.72-7,7.3-.07,14.55,2.24,21.46,4.35,5.64,1.73,11.75,3.05,16.1,7.32a13,13,0,0,1,3.65,6c.85,3.28-.34,5.48-.66,8.65-.47.65-.2.63.78-.08h-1c-1-.56-2.88-.65-4-.9-3.67-.83-7.36-1.6-11-2.39-7.95-1.71-16-3.38-24-4.29-5.12-.58-12.31.71-16.65-2.46-6.5-4.75-12.74,6.09-6.3,10.8,5.31,3.88,12.68,3.47,18.94,3.81,8.6.48,17.22,2.56,25.63,4.39,6.25,1.35,14.6,4.75,21.07,3.23,7-1.64,9.39-9,10-15.39,1.43-14.64-10-24.73-22.88-28.78-7.18-2.26-14.41-4.65-21.85-5.87-6.4-1-14-2-19.81,1.66C143,45.51,137,63.59,143.1,74.65c3.92,7,14.72.74,10.8-6.3Z"/><path class="cls-4" d="M205,76.25c-11.64-.32-27.94-9.31-38,.58-5,5-6.92,14.84-6.42,21.66.58,8,6.6,12.39,13.73,14.73a206.18,206.18,0,0,0,27.9,6.87c8.38,1.49,17.63,3.34,26.17,3.36,8.25,0,12.78-4.33,15.6-11.66,2.19-5.68,4.22-13.25,2.68-19.34-2-7.9-11-11.14-18.07-12.92-9.82-2.47-20.1-3.15-30.13-4.28-8-.9-7.92,11.61,0,12.5,11,1.23,24.94,1.06,34.82,6.8.72.42,1.64,1.92,1.15.52a4.15,4.15,0,0,1,.16,1.65,32,32,0,0,1-1.07,6.74,30.33,30.33,0,0,1-2,5.87c-.48,1-1.73,1.78-.56,1.29a7.71,7.71,0,0,1-3.24.3c-13.85-.36-28.28-3.66-41.56-7.37-3.26-.92-11.48-1.67-13.07-5.08-1.09-2.34.69-11,2.7-12.75,2.67-2.29,9.62-.33,12.63.24C193.92,87,199.41,88.6,205,88.75c8.05.22,8-12.28,0-12.5Z"/><path class="cls-4" d="M208.25,46c-.18,9.19-4.76,19-2.8,28.12s11.22,13.24,19.46,15.32c9.82,2.48,19.72,6.27,29.81,7.27,4.5.44,9.32.22,13-2.79,3.82-3.17,3.62-7.22,5.71-11.27,3.68-7.13-7.1-13.46-10.8-6.3-.69,1.34-1.77,7.11-2.88,7.93-1.74,1.3-7.3-.37-9.29-.83-7.44-1.73-14.78-4.18-22.2-6.06-5.76-1.47-11.31-2.87-10.56-9.59.82-7.36,2.93-14.33,3.08-21.8.16-8-12.34-8-12.5,0Z"/><path class="cls-4" d="M272.41,87.22c-4.69-.89-9.39-1.16-14.13-1.61-3.43-.33-6.77-1.15-10.14,0-6.45,2.3-10.54,11.11-13,17-2.63,6.23-5.51,14.7.52,19.9,2.52,2.18,5.86,2.91,9,3.82,4.59,1.34,9.14,2.81,13.72,4.19,7.72,2.32,11-9.74,3.32-12.06-5.15-1.55-10.28-3.16-15.44-4.68-.77-.23-1.59-.4-2.34-.7,1.2.48.36,2,1.1-.74a36.25,36.25,0,0,1,2.32-6.48c1.08-2.22,3.33-7.73,5.67-8.36,1.7-.47,5.27.59,7.1.74a85.26,85.26,0,0,1,9,1c7.86,1.49,11.23-10.56,3.32-12.06Z"/><path class="cls-4" d="M263.5,122.25c-4.52-.47-8.89-3.3-13.23-4.59-4-1.18-8-2.22-12.07-3a162.7,162.7,0,0,0-16.91-2.26c-6.68-.6-16.43-2.89-20.82,3.89-1.78,2.76-2,5.91-2.46,9-.67,4.43-1.74,8.79-2.56,13.19-1.47,7.89-.59,12.3,6.29,16.8,7.09,4.65,14.46,7.28,22.71,9.17S241,167.31,249.14,170c5.05,1.68,12.95,5.62,18.27,3.51,7.39-2.93,4.17-15-3.32-12.06-2,.8-10-3-12.43-3.77-6.46-2.16-12.91-3.22-19.6-4.41-6.14-1.09-12.85-2.38-18.36-5.38-1.43-.78-2.85-1.66-4.25-2.51-.86-.53-3-2.92-2.5-1-.46-1.88,1.28-6.25,1.66-8.09.68-3.31,1.24-6.62,1.77-9.95a13.25,13.25,0,0,1,.55-3.1c-.67,1.45-.93.61,1,.94,5.66,1,11.63.75,17.35,1.55a113.55,113.55,0,0,1,13.9,2.89c6.86,1.84,13.25,5.37,20.34,6.1,8,.83,7.94-11.68,0-12.5Z"/><path class="cls-4" d="M27.1,99.65c2.44,4.53,8.34,5,12.88,5.38,5.71.44,11.39.39,17.1,1,8.53.9,17,2.37,25.48,3.48,4.61.6,9.24,1,13.79,2.08,3.75.87,9,2.08,11.05,5.71,2.22,3.83,1.34,10.59.9,14.76-.61,5.67-1.5,8.25-7.43,8.65A67.89,67.89,0,0,1,82,139c-19.22-4.27-37.59-9.26-57.52-7.2-7.92.82-8,13.33,0,12.5a108.94,108.94,0,0,1,29.35,1c9.29,1.57,18.23,4.5,27.46,6.28,11.19,2.15,30.23,5.15,36.54-7.31,3-6,3.35-13.41,3.18-20-.16-6-1-11.87-5.23-16.49-8-8.73-21.37-9.2-32.3-10.65-10.08-1.34-20.09-3.09-30.22-4-3.33-.29-6.63-.33-10-.45-1.47,0-3-.07-4.43-.26a12.94,12.94,0,0,0-1.35-.2c-2.27,0-1.37-2.1.36,1.11-3.82-7.09-14.61-.79-10.8,6.3Z"/></g></g></svg>