<svg xmlns="http://www.w3.org/2000/svg" xmlns:xlink="http://www.w3.org/1999/xlink" viewBox="0 0 306 252"><defs><style>.cls-1{fill:none;}.cls-2{clip-path:url(#clip-path);}.cls-3{fill:#84a8b1;}.cls-4{fill:#293538;}.cls-5{fill:#bfe5ea;}</style><clipPath id="clip-path"><circle id="_Ellipse_" data-name="&lt;Ellipse&gt;" class="cls-1" cx="143.31" cy="124.74" r="104.19"/></clipPath></defs><title>pesticide design_v3.3_circular</title><g id="PICL"><g class="cls-2"><path class="cls-3" d="M230.09,237.33c1.28-.59,2.57-1.2,3.88-1.85,12.2-6,29.84-13.55,37.75-25.74,8.27-12.74,10.54-34.68,12.64-49.5,2.18-15.42,2.77-30.32-3-44.45C273.07,95.5,267.13,55.37,246.9,45c-25.85-13.3-53.78-20.79-80.1-31.6C144.21,4.1,90.26,23.7,66.92,29.72,54.57,31.11,47.44,47.78,42.77,58.18c-6.93,15.43-5.48,29.14-10.28,45.51-7.71,26.26,3.8,46.28,9.67,73,2.17,9.89,3.18,19.55,11.32,25.07,12.43,8.43,28.77,13.33,42,20.58,13.57,7.45,24.87,22.54,40.34,25,19.95,3.19,43.08.47,63-1.44A92.58,92.58,0,0,0,230.09,237.33Z"/><path class="cls-4" d="M183.6,201.35l.33-.32a7.67,7.67,0,0,0,2.19-5.3,8.34,8.34,0,0,0-2.19-5.31,7.56,7.56,0,0,0-5.31-2.19,8,8,0,0,0-5.3,2.19l-.33.32a7.71,7.71,0,0,0-2.19,5.3,5.63,5.63,0,0,0,.64,2.89,5.73,5.73,0,0,0,1.55,2.42,7.56,7.56,0,0,0,5.31,2.19,8,8,0,0,0,5.3-2.19Z"/><path class="cls-4" d="M200.62,185.75c9.65,0,9.66-15,0-15s-9.67,15,0,15Z"/><path class="cls-4" d="M216.41,165.18c9.66,0,9.67-15,0-15s-9.66,15,0,15Z"/><path class="cls-4" d="M216.41,138.48c9.66,0,9.67-15,0-15s-9.66,15,0,15Z"/><path class="cls-4" d="M210,114.55c9.65,0,9.67-15,0-15s-9.66,15,0,15Z"/><path class="cls-4" d="M200.62,93.45c9.65,0,9.66-15,0-15s-9.67,15,0,15Z"/><path class="cls-4" d="M182.13,75.86c9.65,0,9.67-15,0-15s-9.67,15,0,15Z"/><path class="cls-4" d="M150.73,52.5l-.33.31a5.6,5.6,0,0,0-1.55,2.41,6.75,6.75,0,0,0,0,5.78,5.63,5.63,0,0,0,1.55,2.42,7.55,7.55,0,0,0,5.3,2.19A8,8,0,0,0,161,63.42l.33-.32a5.6,5.6,0,0,0,1.55-2.41,6.75,6.75,0,0,0,0-5.78,5.6,5.6,0,0,0-1.55-2.41,7.5,7.5,0,0,0-5.3-2.2,8,8,0,0,0-5.31,2.2Z"/><path class="cls-4" d="M128.4,65.3c9.66,0,9.67-15,0-15s-9.66,15,0,15Z"/><path class="cls-4" d="M104,57.91h-.32a7.74,7.74,0,0,0-5.31,2.2,5.6,5.6,0,0,0-1.55,2.41,5.65,5.65,0,0,0-.64,2.89,7.58,7.58,0,0,0,2.19,5.31,7.83,7.83,0,0,0,5.31,2.19H104a7.73,7.73,0,0,0,5.3-2.19,5.65,5.65,0,0,0,1.56-2.42,5.73,5.73,0,0,0,.64-2.89,7.55,7.55,0,0,0-2.2-5.3,7.77,7.77,0,0,0-5.3-2.2Z"/><path class="cls-4" d="M82.46,89.48c9.65,0,9.67-15,0-15s-9.67,15,0,15Z"/><path class="cls-4" d="M65,104.89v.31a7.76,7.76,0,0,0,2.2,5.31,5.69,5.69,0,0,0,2.41,1.55,5.65,5.65,0,0,0,2.89.64,7.63,7.63,0,0,0,5.31-2.19A7.84,7.84,0,0,0,80,105.2v-.31a7.73,7.73,0,0,0-2.19-5.31A5.73,5.73,0,0,0,75.42,98a5.61,5.61,0,0,0-2.89-.64,7.54,7.54,0,0,0-5.3,2.19,7.79,7.79,0,0,0-2.2,5.31Z"/><path class="cls-4" d="M69.93,139.24c9.65,0,9.66-15,0-15s-9.67,15,0,15Z"/><path class="cls-4" d="M72.53,165.18c9.65,0,9.67-15,0-15s-9.67,15,0,15Z"/><path class="cls-4" d="M84.85,185.75c9.66,0,9.67-15,0-15s-9.66,15,0,15Z"/><path class="cls-4" d="M105.78,195.2c9.65,0,9.67-15,0-15s-9.67,15,0,15Z"/><path class="cls-4" d="M119.45,201.08v.32a7.74,7.74,0,0,0,2.2,5.3,5.6,5.6,0,0,0,2.41,1.55,5.76,5.76,0,0,0,2.89.65,7.62,7.62,0,0,0,5.31-2.2,7.82,7.82,0,0,0,2.19-5.3v-.32a7.73,7.73,0,0,0-2.19-5.3,8.42,8.42,0,0,0-5.31-2.2,7.55,7.55,0,0,0-5.3,2.2,7.77,7.77,0,0,0-2.2,5.3Z"/><path class="cls-4" d="M152.71,208.74c9.65,0,9.67-15,0-15s-9.67,15,0,15Z"/><path class="cls-5" d="M155.59,169.88a173.66,173.66,0,0,1,2,19.44c.23,4.8,7.73,4.83,7.5,0a190.27,190.27,0,0,0-2.23-21.43c-.76-4.75-8-2.74-7.23,2Z"/><path class="cls-5" d="M170.4,165.32l.63.05-3.24-1.85c1.81,2.62,2.63,6.6,3.73,9.55l3.62,9.76c1.67,4.49,8.92,2.55,7.24-2l-5.58-15c-1.34-3.6-2-7.64-6.4-8-4.81-.39-4.78,7.11,0,7.5Z"/><path class="cls-5" d="M178.67,155.54a117.68,117.68,0,0,0,9.9,14c3.06,3.73,8.34-1.6,5.3-5.3a104.35,104.35,0,0,1-8.72-12.47c-2.48-4.13-9-.37-6.48,3.79Z"/><path class="cls-5" d="M186.74,147.7a46.49,46.49,0,0,1,11.68,6.21c3.92,2.82,7.67-3.68,3.78-6.48a52.93,52.93,0,0,0-13.46-7c-4.56-1.61-6.53,5.63-2,7.23Z"/><path class="cls-5" d="M190,137.23l12.76,0c4.82,0,4.83-7.51,0-7.5l-12.76,0c-4.83,0-4.84,7.51,0,7.5Z"/><path class="cls-5" d="M187.8,122.87q6.52-2.79,12.82-6c4.3-2.21.51-8.69-3.78-6.48s-8.48,4.18-12.83,6c-1.87.81-2.25,3.53-1.34,5.13,1.1,1.94,3.28,2.14,5.13,1.35Z"/><path class="cls-5" d="M179.1,105.12q6.21-3,12.64-5.49c4.46-1.72,2.52-9-2-7.24q-7.35,2.83-14.44,6.25c-4.34,2.1-.54,8.57,3.79,6.48Z"/><path class="cls-5" d="M170.81,92.16l10.36-11.68c3.19-3.6-2.1-8.93-5.31-5.3L165.51,86.86c-3.19,3.6,2.09,8.93,5.3,5.3Z"/><path class="cls-5" d="M156.29,83.09A147.59,147.59,0,0,0,162.5,69c1.72-4.51-5.52-6.46-7.23-2a128.6,128.6,0,0,1-5.45,12.31c-2.17,4.3,4.29,8.1,6.47,3.79Z"/><path class="cls-5" d="M141.89,80.15a61.28,61.28,0,0,1-2.76-14.32c-.32-4.78-7.83-4.82-7.5,0a69,69,0,0,0,3,16.31c1.45,4.59,8.7,2.63,7.23-2Z"/><path class="cls-5" d="M126.3,84.63a77.61,77.61,0,0,0-8.38-12.69c-1.27-1.58-4-1.32-5.31,0a3.84,3.84,0,0,0,0,5.3,68.11,68.11,0,0,1,7.21,11.18c2.23,4.28,8.71.49,6.48-3.79Z"/><path class="cls-5" d="M113.43,94.55l-8.08-13.86c-2.43-4.17-8.92-.4-6.48,3.79L107,98.34c2.43,4.16,8.92.39,6.48-3.79Z"/><path class="cls-5" d="M104.7,104.85c-1.92-.78-3.52-4.07-5-5.5a28.46,28.46,0,0,0-7.32-5.12c-4.31-2.13-8.12,4.34-3.78,6.47a22.58,22.58,0,0,1,7.52,5.81c2,2.39,3.59,4.36,6.57,5.57,1.89.76,4.1-.83,4.61-2.62.61-2.13-.75-3.86-2.62-4.61Z"/><path class="cls-5" d="M101.67,117.91A146.26,146.26,0,0,0,86.07,113c-4.68-1.19-6.67,6-2,7.24a144.66,144.66,0,0,1,15.6,4.91c4.52,1.7,6.47-5.54,2-7.23Z"/><path class="cls-5" d="M99.7,127.45a34.65,34.65,0,0,0-16,2.1c-4.47,1.69-2.53,8.95,2,7.23a29.72,29.72,0,0,1,14-1.83c4.8.49,4.77-7,0-7.5Z"/><path class="cls-5" d="M101.39,137.75A162.7,162.7,0,0,0,87,147.15c-3.85,2.82-.11,9.34,3.79,6.48a157,157,0,0,1,14.42-9.4c4.18-2.42.41-8.9-3.79-6.48Z"/><path class="cls-5" d="M107.65,145.93q-6.95,8.16-13.11,16.94c-2.77,4,3.73,7.72,6.48,3.79q5.6-8,11.94-15.42c3.11-3.66-2.17-9-5.31-5.31Z"/><path class="cls-5" d="M117,158.36l-8.48,15.3c-2.34,4.23,4.13,8,6.47,3.79l8.48-15.3c2.35-4.23-4.13-8-6.47-3.79Z"/><path class="cls-5" d="M130.73,161.57a209.29,209.29,0,0,1-5.64,21.05c-1.49,4.6,5.75,6.58,7.23,2A206.66,206.66,0,0,0,138,163.57c1-4.71-6.23-6.72-7.23-2Z"/><path class="cls-5" d="M144,164.92l-1.37,25.71c-.25,4.83,7.25,4.81,7.5,0l1.37-25.71c.25-4.83-7.25-4.81-7.5,0Z"/><path class="cls-4" d="M166.11,163.85c-3.94,1.54-8,2.8-12,4a35.39,35.39,0,0,1-9,1.79c-3.87.1-7.65-1.07-11.35-2.23-11.16-3.48-23-7.46-30.1-16.8-5.78-7.65-7.34-17.89-6-27.39a51.45,51.45,0,0,1,23-35.66L124,85.44c9.09-4.23,19-8.26,28.63-5.68,10.19,2.73,17,12.08,22.95,20.82,4.68,6.85,9.41,13.8,12.18,21.63s3.42,16.75-.07,24.29C183.63,155.19,175.26,160.28,166.11,163.85Z"/><path class="cls-3" d="M136.84,140.06c-1.78-1.17-3.49-2.48-5.12-3.77a18.27,18.27,0,0,1-3.39-3.18,18.43,18.43,0,0,1-2.48-5.31c-1.93-5.58-3.88-11.62-2.26-17.22,1.32-4.58,4.93-8.19,9.11-10.38a25.15,25.15,0,0,1,21-.88l1.79.74c4.38,2.51,8.93,5.42,10.76,10.11,1.93,5,.24,10.47-1.46,15.45-1.34,3.9-2.7,7.85-5,11.26s-5.64,6.25-9.67,7C145.49,144.74,141,142.78,136.84,140.06Z"/><path class="cls-5" d="M171.74,181.2a76.53,76.53,0,0,1-19.35,6.53c-5.77,1.1-13.27,2.47-18.51-1-4.73-3.12-7.4-7.53-12.94-9.75s-11.34-3.41-16.55-6.81c-20.54-13.37-24.8-41.8-18.4-63.9A40.89,40.89,0,0,1,106.74,81.2C117.3,75.82,127,70.92,139.19,70.5c11.57-.39,25.43,1.25,35.17,8,5.32,3.69,9.4,9.35,13.31,14.4A88.48,88.48,0,0,1,198,109c5.89,12.51,7,29.45,3.37,42.81s-18,23.4-29.6,29.39c-5.72,3-.66,11.59,5,8.63,12.18-6.3,25.33-16.16,31.62-28.7,6.42-12.79,5.87-30.78,2.74-44.4-3.37-14.67-12.76-27.1-22.41-38.3C178.81,66.92,165.3,62.57,150.56,61c-13.95-1.53-28.5.4-40.76,7.53C104,71.87,98,74.24,92.72,78.55A49.74,49.74,0,0,0,80.7,93c-13.2,24-9.41,59.66,10.26,79.1a50,50,0,0,0,17.35,11.23c3.87,1.48,8.31,2.05,11.78,4.41,3.21,2.19,5.44,5.55,8.75,7.67,6.51,4.18,14.63,3.72,22,2.68a86.54,86.54,0,0,0,26-8.24C182.57,187,177.51,178.37,171.74,181.2Z"/></g></g></svg>