<?xml version="1.0" encoding="utf-8"?>
<!-- Generator: Adobe Illustrator 23.0.0, SVG Export Plug-In . SVG Version: 6.00 Build 0)  -->
<svg version="1.1" id="Layer_1" xmlns="http://www.w3.org/2000/svg" xmlns:xlink="http://www.w3.org/1999/xlink" x="0px" y="0px"
	 viewBox="0 0 401 1100" style="enable-background:new 0 0 401 1100;" xml:space="preserve">
<style type="text/css">
	.st0{display:none;}
	.st1{display:inline;fill:#CCCCCC;}
	.st2{fill:none;stroke:#FFFFFF;stroke-width:0.5;stroke-linecap:square;stroke-miterlimit:10;}
</style>
<g class="st0">
	<rect x="-33" y="-41.5" class="st1" width="464" height="1188"/>
</g>
<line class="st2" x1="383.5" y1="14.16" x2="408.5" y2="14.16"/>
<line class="st2" x1="383.5" y1="5" x2="408.5" y2="5"/>
<line class="st2" x1="383.5" y1="32.48" x2="408.5" y2="32.48"/>
<line class="st2" x1="383.5" y1="23.32" x2="408.5" y2="23.32"/>
<line class="st2" x1="383.5" y1="50.8" x2="408.5" y2="50.8"/>
<line class="st2" x1="373.5" y1="41.64" x2="408.5" y2="41.64"/>
<line class="st2" x1="383.5" y1="69.12" x2="408.5" y2="69.12"/>
<line class="st2" x1="383.5" y1="59.96" x2="408.5" y2="59.96"/>
<line class="st2" x1="373.5" y1="87.44" x2="408.5" y2="87.44"/>
<line class="st2" x1="383.5" y1="78.28" x2="408.5" y2="78.28"/>
<line class="st2" x1="383.5" y1="105.76" x2="408.5" y2="105.76"/>
<line class="st2" x1="383.5" y1="96.6" x2="408.5" y2="96.6"/>
<line class="st2" x1="383.5" y1="124.08" x2="408.5" y2="124.08"/>
<line class="st2" x1="383.5" y1="114.92" x2="408.5" y2="114.92"/>
<line class="st2" x1="373.5" y1="142.39" x2="408.5" y2="142.39"/>
<line class="st2" x1="383.5" y1="133.24" x2="408.5" y2="133.24"/>
<line class="st2" x1="383.5" y1="151.55" x2="408.5" y2="151.55"/>
<line class="st2" x1="383.5" y1="160.71" x2="408.5" y2="160.71"/>
<line class="st2" x1="383.5" y1="179.03" x2="408.5" y2="179.03"/>
<line class="st2" x1="383.5" y1="188.19" x2="408.5" y2="188.19"/>
<line class="st2" x1="373.5" y1="197.35" x2="408.5" y2="197.35"/>
<line class="st2" x1="383.5" y1="169.87" x2="408.5" y2="169.87"/>
<line class="st2" x1="383.5" y1="215.67" x2="408.5" y2="215.67"/>
<line class="st2" x1="383.5" y1="206.51" x2="408.5" y2="206.51"/>
<line class="st2" x1="383.5" y1="233.99" x2="408.5" y2="233.99"/>
<line class="st2" x1="383.5" y1="224.83" x2="408.5" y2="224.83"/>
<line class="st2" x1="383.5" y1="252.31" x2="408.5" y2="252.31"/>
<line class="st2" x1="373.5" y1="243.15" x2="408.5" y2="243.15"/>
<line class="st2" x1="383.5" y1="270.63" x2="408.5" y2="270.63"/>
<line class="st2" x1="383.5" y1="261.47" x2="408.5" y2="261.47"/>
<line class="st2" x1="373.5" y1="288.95" x2="408.5" y2="288.95"/>
<line class="st2" x1="383.5" y1="279.79" x2="408.5" y2="279.79"/>
<line class="st2" x1="383.5" y1="307.27" x2="408.5" y2="307.27"/>
<line class="st2" x1="383.5" y1="298.11" x2="408.5" y2="298.11"/>
<line class="st2" x1="383.5" y1="325.59" x2="408.5" y2="325.59"/>
<line class="st2" x1="383.5" y1="316.43" x2="408.5" y2="316.43"/>
<line class="st2" x1="373.5" y1="343.91" x2="408.5" y2="343.91"/>
<line class="st2" x1="383.5" y1="334.75" x2="408.5" y2="334.75"/>
<line class="st2" x1="383.5" y1="353.07" x2="408.5" y2="353.07"/>
<line class="st2" x1="383.5" y1="362.23" x2="408.5" y2="362.23"/>
<line class="st2" x1="383.5" y1="380.55" x2="408.5" y2="380.55"/>
<line class="st2" x1="383.5" y1="389.71" x2="408.5" y2="389.71"/>
<line class="st2" x1="373.5" y1="398.87" x2="408.5" y2="398.87"/>
<line class="st2" x1="383.5" y1="371.39" x2="408.5" y2="371.39"/>
<line class="st2" x1="383.5" y1="417.18" x2="408.5" y2="417.18"/>
<line class="st2" x1="383.5" y1="408.03" x2="408.5" y2="408.03"/>
<line class="st2" x1="383.5" y1="435.5" x2="408.5" y2="435.5"/>
<line class="st2" x1="383.5" y1="426.34" x2="408.5" y2="426.34"/>
<line class="st2" x1="383.5" y1="453.82" x2="408.5" y2="453.82"/>
<line class="st2" x1="373.5" y1="444.66" x2="408.5" y2="444.66"/>
<line class="st2" x1="383.5" y1="472.14" x2="408.5" y2="472.14"/>
<line class="st2" x1="383.5" y1="462.98" x2="408.5" y2="462.98"/>
<line class="st2" x1="373.5" y1="490.46" x2="408.5" y2="490.46"/>
<line class="st2" x1="383.5" y1="481.3" x2="408.5" y2="481.3"/>
<line class="st2" x1="383.5" y1="508.78" x2="408.5" y2="508.78"/>
<line class="st2" x1="383.5" y1="499.62" x2="408.5" y2="499.62"/>
<line class="st2" x1="383.5" y1="527.1" x2="408.5" y2="527.1"/>
<line class="st2" x1="383.5" y1="517.94" x2="408.5" y2="517.94"/>
<line class="st2" x1="373.5" y1="545.42" x2="408.5" y2="545.42"/>
<line class="st2" x1="383.5" y1="536.26" x2="408.5" y2="536.26"/>
<line class="st2" x1="383.5" y1="554.58" x2="408.5" y2="554.58"/>
<line class="st2" x1="383.5" y1="563.74" x2="408.5" y2="563.74"/>
<line class="st2" x1="383.5" y1="582.06" x2="408.5" y2="582.06"/>
<line class="st2" x1="383.5" y1="591.22" x2="408.5" y2="591.22"/>
<line class="st2" x1="373.5" y1="600.38" x2="408.5" y2="600.38"/>
<line class="st2" x1="383.5" y1="572.9" x2="408.5" y2="572.9"/>
<line class="st2" x1="383.5" y1="618.7" x2="408.5" y2="618.7"/>
<line class="st2" x1="383.5" y1="609.54" x2="408.5" y2="609.54"/>
<line class="st2" x1="383.5" y1="637.02" x2="408.5" y2="637.02"/>
<line class="st2" x1="383.5" y1="627.86" x2="408.5" y2="627.86"/>
<line class="st2" x1="383.5" y1="655.34" x2="408.5" y2="655.34"/>
<line class="st2" x1="373.5" y1="646.18" x2="408.5" y2="646.18"/>
<line class="st2" x1="383.5" y1="673.66" x2="408.5" y2="673.66"/>
<line class="st2" x1="383.5" y1="664.5" x2="408.5" y2="664.5"/>
<line class="st2" x1="373.5" y1="691.97" x2="408.5" y2="691.97"/>
<line class="st2" x1="383.5" y1="682.82" x2="408.5" y2="682.82"/>
<line class="st2" x1="383.5" y1="710.29" x2="408.5" y2="710.29"/>
<line class="st2" x1="383.5" y1="701.13" x2="408.5" y2="701.13"/>
<line class="st2" x1="383.5" y1="728.61" x2="408.5" y2="728.61"/>
<line class="st2" x1="383.5" y1="719.45" x2="408.5" y2="719.45"/>
<line class="st2" x1="373.5" y1="746.93" x2="408.5" y2="746.93"/>
<line class="st2" x1="383.5" y1="737.77" x2="408.5" y2="737.77"/>
<line class="st2" x1="383.5" y1="756.09" x2="408.5" y2="756.09"/>
<line class="st2" x1="383.5" y1="765.25" x2="408.5" y2="765.25"/>
<line class="st2" x1="383.5" y1="783.57" x2="408.5" y2="783.57"/>
<line class="st2" x1="383.5" y1="792.73" x2="408.5" y2="792.73"/>
<line class="st2" x1="373.5" y1="801.89" x2="408.5" y2="801.89"/>
<line class="st2" x1="383.5" y1="774.41" x2="408.5" y2="774.41"/>
<line class="st2" x1="383.5" y1="820.21" x2="408.5" y2="820.21"/>
<line class="st2" x1="383.5" y1="811.05" x2="408.5" y2="811.05"/>
<line class="st2" x1="383.5" y1="838.53" x2="408.5" y2="838.53"/>
<line class="st2" x1="383.5" y1="829.37" x2="408.5" y2="829.37"/>
<line class="st2" x1="383.5" y1="856.85" x2="408.5" y2="856.85"/>
<line class="st2" x1="373.5" y1="847.69" x2="408.5" y2="847.69"/>
<line class="st2" x1="383.5" y1="875.17" x2="408.5" y2="875.17"/>
<line class="st2" x1="383.5" y1="866.01" x2="408.5" y2="866.01"/>
<line class="st2" x1="373.5" y1="893.49" x2="408.5" y2="893.49"/>
<line class="st2" x1="383.5" y1="884.33" x2="408.5" y2="884.33"/>
<line class="st2" x1="383.5" y1="911.81" x2="408.5" y2="911.81"/>
<line class="st2" x1="383.5" y1="902.65" x2="408.5" y2="902.65"/>
<line class="st2" x1="383.5" y1="930.13" x2="408.5" y2="930.13"/>
<line class="st2" x1="383.5" y1="920.97" x2="408.5" y2="920.97"/>
<line class="st2" x1="373.5" y1="948.45" x2="408.5" y2="948.45"/>
<line class="st2" x1="383.5" y1="939.29" x2="408.5" y2="939.29"/>
<line class="st2" x1="383.5" y1="957.61" x2="408.5" y2="957.61"/>
<line class="st2" x1="383.5" y1="966.76" x2="408.5" y2="966.76"/>
<line class="st2" x1="383.5" y1="985.08" x2="408.5" y2="985.08"/>
<line class="st2" x1="383.5" y1="994.24" x2="408.5" y2="994.24"/>
<line class="st2" x1="373.5" y1="1003.4" x2="408.5" y2="1003.4"/>
<line class="st2" x1="383.5" y1="975.92" x2="408.5" y2="975.92"/>
<line class="st2" x1="383.5" y1="1021.72" x2="408.5" y2="1021.72"/>
<line class="st2" x1="383.5" y1="1012.56" x2="408.5" y2="1012.56"/>
<line class="st2" x1="383.5" y1="1040.04" x2="408.5" y2="1040.04"/>
<line class="st2" x1="383.5" y1="1030.88" x2="408.5" y2="1030.88"/>
<line class="st2" x1="383.5" y1="1058.36" x2="408.5" y2="1058.36"/>
<line class="st2" x1="373.5" y1="1049.2" x2="408.5" y2="1049.2"/>
<line class="st2" x1="383.5" y1="1076.68" x2="408.5" y2="1076.68"/>
<line class="st2" x1="383.5" y1="1067.52" x2="408.5" y2="1067.52"/>
<line class="st2" x1="373.5" y1="1095" x2="408.5" y2="1095"/>
<line class="st2" x1="383.5" y1="1085.84" x2="408.5" y2="1085.84"/>
</svg>
