<svg xmlns="http://www.w3.org/2000/svg" xmlns:xlink="http://www.w3.org/1999/xlink" viewBox="0 0 306 252"><defs><style>.cls-1{fill:none;}.cls-2{clip-path:url(#clip-path);}.cls-3{fill:#bfe5ea;}.cls-4{fill:#84a8b1;}.cls-5{fill:#6a929e;}</style><clipPath id="clip-path"><circle id="_Ellipse_" data-name="&lt;Ellipse&gt;" class="cls-1" cx="156.5" cy="130" r="99"/></clipPath></defs><title>pesticide design_v3.3_circular</title><g id="TEFO"><g class="cls-2"><path class="cls-3" d="M273.32,192l-.09.34c-5,20.07-11.61,41.78-29.23,49.8-10,4.54-19.31,3.4-29.92,2.94s-21.18-.56-31.55-3.06c-22.32-5.37-40.35,4.86-62.19-4-8.64-3.5-17.92-7.42-25.2-14-3.45-3.11-6.31-7.05-10.17-9.39-11.38-6.9-25-4.13-34-16.63-5.17-7.2-6.16-15.2-9.16-23.47C36.93,161,28.63,147.73,29.78,132.19c1.4-18.88.94-42,14.21-56.08a41.14,41.14,0,0,0,3.94-6.2c3.23-7.45,5.47-15.42,11-21.55,9-10,25.27-15.17,36.88-19.56,9.36-3.55,19.22-8.72,28.78-11,33.76-8.1,67.61-1.57,95.19,23.24,14,12.59,22.77,31.62,36.37,44.11,9.85,9,20.55,14.89,26.7,28.67C294.23,139.37,279.61,166.86,273.32,192Z"/><path class="cls-4" d="M69.35,128.65c7.39,5.9,14.75,11.85,22.22,17.65,6.77,5.25,14.77,9.76,20.78,15.85,3.39,3.44,8.7-1.86,5.3-5.3-6-6.12-14-10.6-20.78-15.86-7.48-5.78-14.82-11.74-22.22-17.64-3.73-3-9.08,2.29-5.3,5.3Z"/><path class="cls-4" d="M93.85,119.15c14.64,13.25,30.7,24.86,45,38.5,3.49,3.33,8.8-2,5.3-5.3-14.3-13.64-30.35-25.25-45-38.5-3.57-3.23-8.89,2.05-5.3,5.3Z"/><path class="cls-4" d="M121.35,114.15c14.27,15.4,32.55,26.3,47,41.5,3.33,3.51,8.63-1.8,5.3-5.3-14.45-15.21-32.72-26.1-47-41.5-3.29-3.55-8.58,1.76-5.3,5.3Z"/><path class="cls-4" d="M154.85,113.65a579,579,0,0,0,44.5,39.5c3.72,3,9.05-2.26,5.3-5.3a580.9,580.9,0,0,1-44.5-39.5c-3.42-3.41-8.73,1.89-5.3,5.3Z"/><path class="cls-4" d="M182.85,105.15c11,11,23.15,20.66,34.51,31.24,4.22,3.92,8.06,8.11,12.06,12.23,2.87,3,6.22,6.41,10.58,6.63,4.82.24,4.81-7.26,0-7.5-2.69-.14-6.67-5.92-8.37-7.77-4.08-4.45-8.52-8.56-13-12.59-10.18-9.17-20.8-17.83-30.48-27.54-3.41-3.42-8.72,1.88-5.3,5.3Z"/><path class="cls-4" d="M212.85,104.65c16.7,14.87,36.61,26.13,51,43.5,3.08,3.72,8.36-1.61,5.3-5.3-14.39-17.37-34.3-28.64-51-43.5-3.59-3.2-8.92,2.08-5.3,5.3Z"/><path class="cls-4" d="M244.85,104.15c11.37,11.33,24.32,21,35,33,3.21,3.62,8.5-1.7,5.3-5.3-10.67-12-23.63-21.68-35-33-3.42-3.41-8.73,1.89-5.3,5.3Z"/><path class="cls-4" d="M252.76,146.11c-10.18,13.66-20.72,27-30.5,41-2.77,4,3.72,7.71,6.48,3.78,9.78-13.95,20.32-27.34,30.5-41,2.88-3.87-3.62-7.61-6.48-3.78Z"/><path class="cls-4" d="M223.26,146.61c-11.81,16.4-21.09,34.56-33.91,50.24-3,3.7,2.24,9,5.3,5.3,13.24-16.19,22.9-34.82,35.09-51.76,2.82-3.92-3.68-7.67-6.48-3.78Z"/><path class="cls-4" d="M195.76,147.61c-11,17.75-22.42,35.21-32.5,53.5-2.33,4.23,4.14,8,6.48,3.78,10.08-18.28,21.54-35.74,32.5-53.5,2.54-4.12-3.94-7.89-6.48-3.78Z"/><path class="cls-4" d="M168.26,155.61c-10.08,14.22-18.36,29.71-29.41,43.24-3,3.71,2.24,9,5.3,5.3,11.47-14,20.13-30,30.59-44.76,2.79-3.94-3.71-7.69-6.48-3.78Z"/><path class="cls-4" d="M140.26,161.11c-10.41,15.22-18.72,31.91-30.41,46.24-3,3.71,2.25,9,5.3,5.3,12.12-14.85,20.8-32,31.59-47.76,2.73-4-3.77-7.75-6.48-3.78Z"/><path class="cls-4" d="M112.26,165.11c-10,15.22-19.09,31-25.88,47.89-1.79,4.48,5.46,6.43,7.24,2,6.53-16.3,15.51-31.46,25.12-46.11,2.65-4-3.84-7.81-6.48-3.78Z"/><path class="cls-4" d="M85.26,167.11c-7.44,14.29-15.87,28-23,42.5-2.13,4.31,4.34,8.12,6.48,3.78,7.13-14.45,15.56-28.21,23-42.5,2.22-4.27-4.25-8.07-6.48-3.78Z"/><path class="cls-4" d="M166.11,213.74c9.58,6,18.64,12.69,28,19,4,2.7,7.77-3.79,3.78-6.48-9.35-6.3-18.41-13-28-19-4.11-2.55-7.88,3.93-3.78,6.48Z"/><path class="cls-4" d="M193.61,207.74c13.14,8.1,27.51,14.38,39.74,23.91,3.76,2.93,9.11-2.34,5.3-5.3-12.77-10-27.53-16.62-41.26-25.09-4.12-2.54-7.89,4-3.78,6.48Z"/><path class="cls-4" d="M131.11,215.2c9.59,5.8,19.33,11.34,29,17,4.17,2.45,7.95-4,3.78-6.47-9.67-5.67-19.41-11.21-29-17-4.14-2.51-7.91,4-3.78,6.47Z"/><path class="cls-5" d="M73.35,48.65c6.24,5.21,13.21,13.64,21.65,15,4.72.74,6.76-6.49,2-7.24-7.08-1.11-13.1-8.65-18.35-13-3.68-3.07-9,2.21-5.3,5.3Z"/><path class="cls-4" d="M98.35,41.15c6.43,6.42,13.47,12.18,20,18.5,3.47,3.36,8.78-1.94,5.3-5.3-6.52-6.32-13.57-12.08-20-18.5-3.42-3.41-8.72,1.89-5.3,5.3Z"/><path class="cls-4" d="M119.85,36.15c11.29,9.86,21.32,21.29,34.26,29.09,4.14,2.5,7.92-4,3.78-6.48C145.52,51.3,136,40.28,125.15,30.85c-3.62-3.16-9,2.12-5.3,5.3Z"/><path class="cls-4" d="M141.85,32.65c8.55,9.43,17.45,18.73,28.26,25.59,4.08,2.59,7.85-3.9,3.78-6.48-10.25-6.5-18.63-15.47-26.74-24.41-3.25-3.58-8.54,1.73-5.3,5.3Z"/><path class="cls-4" d="M163.26,27.39c8.2,10.71,17.62,20.2,27.59,29.26,3.56,3.24,8.88-2,5.3-5.3-9.46-8.6-18.62-17.57-26.41-27.74-2.9-3.78-9.41-.05-6.48,3.78Z"/><path class="cls-5" d="M60.26,69.61C55.73,79.21,50.61,88.52,45.79,98c-4.61,9-7.88,18.92-13,27.63-2.46,4.16,4,7.94,6.48,3.78,5.16-8.72,8.41-18.59,13-27.63C57.08,92.3,62.2,83,66.74,73.39c2.05-4.34-4.42-8.15-6.48-3.78Z"/><path class="cls-4" d="M85.26,68.61c-3.89,7.6-8,15.1-11.85,22.7-2.76,5.43-5.65,10.84-8,16.44s-4.13,11.33-7.6,16.36c-2.75,4,3.75,7.73,6.48,3.78,3.33-4.83,5.17-10.33,7.36-15.73C74,106.32,77,100.71,79.89,95.1c3.88-7.61,8-15.11,11.85-22.71,2.19-4.29-4.28-8.09-6.48-3.78Z"/><path class="cls-4" d="M109.26,65.11c-3.47,7.38-7.08,14.68-10.38,22.15-2.06,4.66-4,9.37-5.92,14.1-2.22,5.45-5.26,10.53-7.08,16.14-1.49,4.61,5.75,6.58,7.24,2,1.61-5,4.39-9.48,6.36-14.33,2.13-5.23,4.23-10.46,6.54-15.61,3.1-7,6.48-13.78,9.72-20.67,2-4.34-4.42-8.15-6.48-3.78Z"/><path class="cls-4" d="M134.26,62.61C130.66,69,128.54,76.16,126,83a146.26,146.26,0,0,1-14.74,29.6c-2.65,4,3.84,7.81,6.48,3.78a149.5,149.5,0,0,0,14.5-28.77C135,80.54,137,73,140.74,66.39c2.37-4.21-4.11-8-6.48-3.78Z"/><path class="cls-4" d="M162.26,60.61C159,66.91,156,73.29,153,79.69c-2.23,4.7-4.35,9.45-6.74,14.07-2.18,4.24-4.49,8.5-5.33,13.24s6.4,6.75,7.24,2,3.14-8.62,5.25-12.76c2.37-4.65,4.48-9.45,6.72-14.16,2.81-5.93,5.66-11.84,8.65-17.69,2.19-4.29-4.28-8.09-6.48-3.78Z"/><path class="cls-4" d="M190.26,52.11c-9.82,15.48-18.11,32-26,48.5-2.06,4.33,4.4,8.14,6.48,3.78,7.88-16.53,16.17-33,26-48.5,2.59-4.08-3.9-7.85-6.48-3.78Z"/><path class="cls-4" d="M214.76,50.61c-10.48,15-20.24,30.38-28,47-2,4.34,4.43,8.16,6.48,3.78,7.76-16.61,17.52-32,28-47,2.77-4-3.73-7.72-6.48-3.78Z"/><path class="cls-4" d="M230.76,53.11c-2.44,5.47-4.27,11.18-6.4,16.78a153.3,153.3,0,0,1-12.1,24.72c-2.5,4.14,4,7.92,6.48,3.78A162,162,0,0,0,230.66,74.3c2.28-5.76,4.05-11.75,6.58-17.41,1.95-4.37-4.51-8.19-6.48-3.78Z"/><path class="cls-4" d="M36.35,131.65C45,138.88,53.6,146.1,62.07,153.5c4.12,3.6,8.18,7.25,12.22,10.93,3.7,3.39,7.86,6.33,11.06,10.22,3.06,3.73,8.34-1.6,5.3-5.3s-6.88-6.4-10.35-9.56C76,155.89,71.73,152,67.38,148.2c-8.47-7.41-17.1-14.63-25.73-21.85-3.68-3.08-9,2.2-5.3,5.3Z"/><path class="cls-4" d="M44.46,79.18c32.78-7.7,66.35-8.2,99.74-11.05,16.62-1.41,33.14-3.55,49.67-5.68,8.13-1.05,16.35-1.29,24.46-2.39s15.95-3.75,24.14-4.11c9.61-.43,9.66-15.43,0-15-8.66.38-16.81,3-25.32,4.24-8,1.18-16.18,1.33-24.22,2.38-16.85,2.2-33.71,4.33-50.65,5.72C108.19,56.1,73.93,56.86,40.47,64.72c-9.39,2.2-5.41,16.67,4,14.46Z"/><path class="cls-4" d="M36.59,131.6c15.82-1.8,31.81-1.8,47.53-4.48,15.89-2.7,31.58-6.82,47.45-9.74s32-6,48-8.87A245.47,245.47,0,0,1,228,104.72c18.46.32,36.85.6,55.07-2.88,9.47-1.82,5.46-16.28-4-14.47-15.58,3-31.49,2.7-47.28,2.42-16.11-.29-31.76.27-47.71,2.81s-32,6-48.09,8.8q-23.45,4.11-46.7,9.36c-17.39,3.93-35.09,3.84-52.73,5.84-4,.46-7.5,3.12-7.5,7.5,0,3.7,3.45,8,7.5,7.5Z"/><path class="cls-4" d="M52.66,184.23c25.66-4.45,51.19-9.56,76.8-14.27,15.11-2.79,30.11-6.11,45.22-9,15.42-2.9,30.92-2.9,46.54-3.55,9-.37,17.94-1.32,27-1.45s18.1-.34,27.08-2c9.47-1.77,5.46-16.23-4-14.46-7.62,1.42-15.37,1.38-23.09,1.48-8.09.11-16.09.93-24.16,1.33-15.58.76-31.17.53-46.62,3-15.79,2.55-31.35,6.39-47.09,9.25-12.68,2.31-25.34,4.73-38,7.13-14.53,2.75-29.06,5.51-43.63,8-9.49,1.64-5.47,16.1,4,14.46Z"/><path class="cls-4" d="M93.9,222.6c18-3.11,36.13-5.86,54.19-8.83,17.72-2.93,35.23-6.65,52.84-10.1,17-3.33,34-3.38,51.3-4.18,8.7-.41,17.32-1.27,26-1.38s17.47-.39,26.14-2c9.48-1.78,5.46-16.24-4-14.47-8.54,1.6-17.24,1.36-25.89,1.53s-17.33,1.16-26,1.48c-17.41.65-34.4,1.22-51.55,4.57-17.62,3.44-35.13,7.17-52.85,10.09-18,3-36.15,5.73-54.19,8.83-9.49,1.64-5.47,16.09,4,14.47Z"/></g></g></svg>