<svg xmlns="http://www.w3.org/2000/svg" xmlns:xlink="http://www.w3.org/1999/xlink" viewBox="0 0 306 252"><defs><style>.cls-1{fill:none;}.cls-2{clip-path:url(#clip-path);}.cls-3{fill:#293538;}.cls-4{fill:#bfe5ea;}.cls-5{fill:#84a8b1;}</style><clipPath id="clip-path"><circle id="_Ellipse_" data-name="&lt;Ellipse&gt;" class="cls-1" cx="143.93" cy="116.09" r="95.25"/></clipPath></defs><title>pesticide design_v3.3_circular</title><g id="TRIC"><g class="cls-2"><path id="_Path_" data-name="&lt;Path&gt;" class="cls-3" d="M230.72,47.12a47.84,47.84,0,0,0-16.58-11c-11.39-4.76-23-7.08-34.78-10.34-9.24-2.55-18.15-7-27.65-8.48-10.79-1.66-22.71-.16-33.41,1.23-16,2.08-30.81,6.26-42.41,18-21.82,22.1-31.95,51.44-37.33,81-1.25,6.86-3.74,14.17-2.61,21.26,1.57,9.9,10.4,28.57,17.43,35.06,4.09,3.77,59.44,35.59,82.14,37.56,16.71,1.45,26.25-4.9,41.4-7.6,8.6-1.53,17.44,1.26,26.42-.46,9.74-1.88,24.1-5,32.42-10.36,13.68-8.88,31.27-43.15,34.6-59.25,4.85-23.49-16.36-45.54-25.9-65C240.21,60,236.29,52.9,230.72,47.12Z"/><path class="cls-4" d="M149.07,72.63v-.5a11.29,11.29,0,0,0-1.29-5.78,11.29,11.29,0,0,0-3.1-4.82,11.14,11.14,0,0,0-4.83-3.1,11.37,11.37,0,0,0-5.78-1.3l-4,.54a15,15,0,0,0-6.62,3.86l-2.34,3a14.94,14.94,0,0,0-2.05,7.57v.5a11.24,11.24,0,0,0,1.29,5.78,13.46,13.46,0,0,0,7.93,7.93,11.29,11.29,0,0,0,5.78,1.29l4-.53a15.05,15.05,0,0,0,6.62-3.86l2.34-3a14.91,14.91,0,0,0,2-7.57Z"/><path class="cls-5" d="M272.68,149.14a67.13,67.13,0,0,1-15,32.35c-11.27,12.92-28,20.43-45.06,22.22-5.7.59-11.46.6-17.12,1.51-7.15,1.16-14,3.76-20.9,5.9-29.25,9-62.53,9.48-89.07-5.78C68.41,195.49,55.37,180,42.71,164.8c-5.89-7.05-13.31-21.17-9.64-33.5,14.33-8,59.64,7,91.6,7,17.08,0,32-.42,48.13-6.67C191.22,124.5,206.92,115.71,223,105a52.84,52.84,0,0,1,19.51-8.46c5.58-1.27,11.78-1.18,17.49-1.46,5.1-.25,6.1,1.56,7.76,6.3a100.47,100.47,0,0,1,6,37.37A78.07,78.07,0,0,1,272.68,149.14Z"/><path class="cls-5" d="M33.66,119.12c31.26-1.65,61.77,6.91,92.91,7.68a129,129,0,0,0,44.7-6.35c13.78-4.65,26.78-11.3,39.56-18.19,6.95-3.74,13.94-7.44,20.77-11.4,6.17-3.59,13.79-8.74,21.27-7.11,6.27,1.36,8.95-8.27,2.66-9.64-13.26-2.89-24.68,6-35.71,11.92-13.22,7.14-26.33,14.64-40.16,20.56a121.31,121.31,0,0,1-44.75,10.21c-16,.43-32-1.74-47.85-3.89-17.71-2.4-35.48-4.73-53.4-3.79-6.41.34-6.45,10.34,0,10Z"/></g></g></svg>